<?xml version="1.0" encoding="UTF-8" standalone="no"?>
<svg
   xmlns:dc="http://purl.org/dc/elements/1.1/"
   xmlns:cc="http://creativecommons.org/ns#"
   xmlns:rdf="http://www.w3.org/1999/02/22-rdf-syntax-ns#"
   xmlns:svg="http://www.w3.org/2000/svg"
   xmlns="http://www.w3.org/2000/svg"
   xmlns:sodipodi="http://sodipodi.sourceforge.net/DTD/sodipodi-0.dtd"
   xmlns:inkscape="http://www.inkscape.org/namespaces/inkscape"
   version="1.1"
   id="Layer_1"
   x="0px"
   y="0px"
   viewBox="0 0 32 32"
   xml:space="preserve"
   inkscape:version="0.91 r13725"
   sodipodi:docname="favicon.svg"
   width="32"
   height="32"
   inkscape:export-filename="/Users/gpena-castellanos/Develop/website-2018/assets/static/favicon/icon-256.png"
   inkscape:export-xdpi="720"
   inkscape:export-ydpi="720"><metadata
     id="metadata3810"><rdf:RDF><cc:Work
         rdf:about=""><dc:format>image/svg+xml</dc:format><dc:type
           rdf:resource="http://purl.org/dc/dcmitype/StillImage" /><dc:title></dc:title></cc:Work></rdf:RDF></metadata><defs
     id="defs3808"><radialGradient
       gradientUnits="userSpaceOnUse"
       r="10.2828"
       cy="64.204697"
       cx="363.58209"
       id="XMLID_530_"><stop
         id="stop3697"
         style="stop-color:#5DECFF"
         offset="0.4021" /><stop
         id="stop3699"
         style="stop-color:#03E3FF"
         offset="1" /></radialGradient><radialGradient
       gradientUnits="userSpaceOnUse"
       r="6.6336002"
       cy="153.76379"
       cx="212.3847"
       id="XMLID_531_"><stop
         id="stop3703"
         style="stop-color:#5DECFF"
         offset="0.4021" /><stop
         id="stop3705"
         style="stop-color:#03E3FF"
         offset="1" /></radialGradient><radialGradient
       gradientUnits="userSpaceOnUse"
       r="10.2827"
       cy="33.066299"
       cx="260.26379"
       id="XMLID_532_"
       gradientTransform="translate(73.537026,-22.839506)"><stop
         id="stop3709"
         style="stop-color:#5DECFF"
         offset="0.4021" /><stop
         id="stop3711"
         style="stop-color:#03E3FF"
         offset="1" /></radialGradient><radialGradient
       gradientUnits="userSpaceOnUse"
       r="6.6345"
       cy="173.125"
       cx="289.4577"
       id="XMLID_533_"><stop
         id="stop3715"
         style="stop-color:#5DECFF"
         offset="0.4021" /><stop
         id="stop3717"
         style="stop-color:#03E3FF"
         offset="1" /></radialGradient></defs><sodipodi:namedview
     pagecolor="#ffffff"
     bordercolor="#666666"
     borderopacity="1"
     objecttolerance="10"
     gridtolerance="10"
     guidetolerance="10"
     inkscape:pageopacity="0"
     inkscape:pageshadow="2"
     inkscape:window-width="1440"
     inkscape:window-height="803"
     id="namedview3806"
     showgrid="true"
     inkscape:zoom="22.627417"
     inkscape:cx="15.617493"
     inkscape:cy="16.270793"
     inkscape:window-x="0"
     inkscape:window-y="0"
     inkscape:window-maximized="0"
     inkscape:current-layer="Layer_1"><inkscape:grid
       type="xygrid"
       id="grid4372" /></sodipodi:namedview><style
     type="text/css"
     id="style3687">
	.st0{fill:none;}
	.st1{fill:url(#XMLID_530_);}
	.st2{fill:url(#XMLID_531_);}
	.st3{fill:url(#XMLID_532_);}
	.st4{fill:url(#XMLID_533_);}
	.st5{fill:#03E3FF;}
	.st6{fill:#FFFFFF;}
</style><circle
     style="opacity:0.98999999;fill:#382092;fill-opacity:1;stroke:#4deaff;stroke-width:0;stroke-linecap:square;stroke-linejoin:round;stroke-miterlimit:4;stroke-dasharray:none;stroke-opacity:1"
     id="path4370"
     cx="15.999999"
     cy="15.999999"
     r="15.999994" /><rect
     id="XMLID_529_"
     x="0"
     class="st0"
     width="485"
     height="220"
     y="-188"
     style="fill:none" /><g
     style="fill:#4deaff;fill-opacity:1;stroke:none"
     id="XMLID_1435_"
     transform="matrix(0.56994819,0,0,0.57441254,-143.64249,-50.373369)"><path
       id="XMLID_1439_"
       class="st6"
       d="m 279.9,96.4 c -9.8,0 -9.1,4.1 -9.1,4.1 l 0,4.3 9.5,0 0,1 -13.2,0 c 0,0 -6.3,-0.5 -6.3,9.3 0,9.8 5.5,9.7 5.5,9.7 l 3,0 0,-4.4 c 0,0 0.1,-5.6 5.7,-5.6 l 9.2,0 c 0,0 5.1,0.3 5.1,-4.8 l 0,-8.4 c 0,-0.1 0.8,-5.2 -9.4,-5.2 l 0,0 0,0 z m -5.1,3 c 0.9,0 1.7,0.7 1.7,1.7 0,0.9 -0.7,1.7 -1.7,1.7 -1,0 -1.7,-0.7 -1.7,-1.7 0.1,-1 0.8,-1.7 1.7,-1.7 l 0,0 0,0 z"
       inkscape:connector-curvature="0"
       style="fill:#4deaff;fill-opacity:1;stroke:none" /><path
       id="XMLID_1436_"
       class="st6"
       d="m 280,134.7 c 9.8,0 9.3,-4.4 9.3,-4.4 l 0.1,-4.5 -9.1,0 0,-1 12.8,0 c 0,0 6.3,0.5 6.3,-9.3 0,-9.8 -5.5,-9.7 -5.5,-9.7 l -2.6,0 0,4.9 c 0,0 -0.5,5.1 -6,5.1 l -9.3,0 c 0,0 -5.7,0.2 -5.7,5.4 l 0,8.4 c 0,0 -0.5,5.1 9.7,5.1 l 0,0 0,0 z m 5.4,-2.9 c -0.9,0 -1.7,-0.7 -1.7,-1.7 0,-0.9 0.7,-1.7 1.7,-1.7 1,0 1.7,0.7 1.7,1.7 0,0.9 -0.8,1.7 -1.7,1.7 l 0,0 0,0 z"
       inkscape:connector-curvature="0"
       style="fill:#4deaff;fill-opacity:1;stroke:none" /></g></svg>