<?xml version="1.0" encoding="UTF-8" standalone="no"?>
<svg
   xmlns:dc="http://purl.org/dc/elements/1.1/"
   xmlns:cc="http://creativecommons.org/ns#"
   xmlns:rdf="http://www.w3.org/1999/02/22-rdf-syntax-ns#"
   xmlns:svg="http://www.w3.org/2000/svg"
   xmlns="http://www.w3.org/2000/svg"
   version="1.1"
   id="Layer_1"
   x="0px"
   y="0px"
   viewBox="0 0 485 220"
   style="enable-background:new 0 0 485 220;"
   xml:space="preserve"><metadata
     id="metadata3810"><rdf:RDF><cc:Work
         rdf:about=""><dc:format>image/svg+xml</dc:format><dc:type
           rdf:resource="http://purl.org/dc/dcmitype/StillImage" /><dc:title></dc:title></cc:Work></rdf:RDF></metadata><defs
     id="defs3808"><radialGradient
       gradientUnits="userSpaceOnUse"
       r="10.2828"
       cy="64.204697"
       cx="363.58209"
       id="XMLID_530_"><stop
         id="stop3697"
         style="stop-color:#5DECFF"
         offset="0.4021" /><stop
         id="stop3699"
         style="stop-color:#03E3FF"
         offset="1" /></radialGradient><radialGradient
       gradientUnits="userSpaceOnUse"
       r="6.6336002"
       cy="153.76379"
       cx="212.3847"
       id="XMLID_531_"><stop
         id="stop3703"
         style="stop-color:#5DECFF"
         offset="0.4021" /><stop
         id="stop3705"
         style="stop-color:#03E3FF"
         offset="1" /></radialGradient><radialGradient
       gradientUnits="userSpaceOnUse"
       r="10.2827"
       cy="33.066299"
       cx="260.26379"
       id="XMLID_532_"><stop
         id="stop3709"
         style="stop-color:#5DECFF"
         offset="0.4021" /><stop
         id="stop3711"
         style="stop-color:#03E3FF"
         offset="1" /></radialGradient><radialGradient
       gradientUnits="userSpaceOnUse"
       r="6.6345"
       cy="173.125"
       cx="289.4577"
       id="XMLID_533_"><stop
         id="stop3715"
         style="stop-color:#5DECFF"
         offset="0.4021" /><stop
         id="stop3717"
         style="stop-color:#03E3FF"
         offset="1" /></radialGradient><filter
       style="color-interpolation-filters:sRGB"
       id="filter5591"
       x="-0.067692308"
       width="1.1353846"
       y="-0.528"
       height="2.056"><feGaussianBlur
         stdDeviation="10.34"
         id="feGaussianBlur5593" /></filter><filter
       style="color-interpolation-filters:sRGB"
       id="filter7621"
       x="-0.659375"
       width="2.31875"
       y="-0.55043478"
       height="2.1008696"><feGaussianBlur
         stdDeviation="10.55"
         id="feGaussianBlur7623" /></filter><filter
       style="color-interpolation-filters:sRGB"
       id="filter7968"
       x="-0.12767376"
       width="1.2553475"
       y="-0.13662971"
       height="1.2732594"><feGaussianBlur
         stdDeviation="10.4522"
         id="feGaussianBlur7970" /></filter></defs><style
     type="text/css"
     id="style3687">
	.st0{fill:none;}
	.st1{fill:url(#XMLID_530_);}
	.st2{fill:url(#XMLID_531_);}
	.st3{fill:url(#XMLID_532_);}
	.st4{fill:url(#XMLID_533_);}
	.st5{fill:#03E3FF;}
	.st6{fill:#FFFFFF;}
</style><g
     transform="translate(-200.00015,0)"
     style="fill:#03e3ff;fill-opacity:1;filter:url(#filter7968)"
     id="g3497"><path
       id="path3499"
       class="st1"
       d="m 571.29993,56.5 c 4,3.5 3.8,9.8 -0.4,14 -4.2,4.2 -10.9,4.8 -15,1.3 -4,-3.5 -3.8,-9.8 0.4,-14 4.2,-4.2 10.9,-4.8 15,-1.3 z"
       style="fill:#03e3ff;fill-opacity:1;stroke:none" /><path
       id="path3501"
       class="st2"
       d="m 417.29993,148.8 c 2.6,2.3 2.5,6.3 -0.3,9.1 -2.7,2.7 -7.1,3.1 -9.7,0.8 -2.6,-2.3 -2.5,-6.3 0.3,-9.1 2.8,-2.7 7.1,-3.1 9.7,-0.8 z"
       style="fill:#03e3ff;fill-opacity:1;stroke:none" /><path
       id="path3503"
       class="st3"
       d="m 467.99993,25.4 c 4,3.5 3.8,9.8 -0.4,14 -4.2,4.2 -10.9,4.8 -15,1.3 -4,-3.5 -3.8,-9.8 0.4,-14 4.2,-4.2 10.9,-4.8 15,-1.3 z"
       style="fill:#03e3ff;fill-opacity:1;stroke:none" /><path
       id="path3505"
       class="st4"
       d="m 494.39993,168.2 c 2.6,2.3 2.5,6.3 -0.3,9.1 -2.7,2.7 -7.1,3.1 -9.7,0.8 -2.6,-2.3 -2.5,-6.3 0.3,-9.1 2.8,-2.7 7.1,-3.1 9.7,-0.8 z"
       style="fill:#03e3ff;fill-opacity:1;stroke:none" /><g
       transform="translate(199.99993,0.3255814)"
       style="fill:#03e3ff;fill-opacity:1;stroke:none"
       id="g3507"><path
         id="path3509"
         class="st5"
         d="m 284.3,69.4 c -0.4,-0.8 -0.9,-1.6 -1.3,-2.4 -6.3,5.7 -12.3,11.7 -18.2,17.8 0.7,0.2 1.4,0.4 2.1,0.5 5.6,-5.5 11.4,-10.8 17.4,-15.9 z"
         style="fill:#03e3ff;fill-opacity:1;stroke:none" /><path
         id="path3511"
         class="st5"
         d="m 248.4,104.8 c -0.2,-0.5 -0.4,-0.9 -0.6,-1.4 -5.9,6.9 -11.5,14 -17,21.1 0.4,0.2 0.8,0.3 1.2,0.5 5.2,-6.9 10.7,-13.6 16.4,-20.2 z"
         style="fill:#03e3ff;fill-opacity:1;stroke:none" /><path
         id="path3513"
         class="st5"
         d="m 376.4,25.5 c -1.9,-3.8 -5.1,-6.3 -9.3,-7 -10.2,-1.6 -21.4,4 -30.1,8.6 -15.1,8 -29,18.4 -42,29.4 -3.6,3 -7.1,6.1 -10.6,9.3 0.5,0.8 0.9,1.6 1.4,2.4 10.6,-9 21.8,-17.2 33.6,-24.6 8.4,-5.3 17.3,-10.3 26.7,-13.6 5.4,-1.9 12.7,-4.1 18.3,-1.6 3.8,1.7 5.5,5.8 5.6,9.8 0.1,3.1 -0.5,6.1 -1.3,9.1 -0.5,1.8 -1.1,3.6 -1.8,5.3 -0.3,0.7 -1.2,2.1 -1.2,2.8 -0.5,0.6 -0.3,0.9 0.6,0.8 0.5,0.2 1.1,0.4 1.6,0.7 0.3,0.1 5.7,-7 6,-7.7 3,-7.1 6.1,-16.3 2.5,-23.7 z"
         style="fill:#03e3ff;fill-opacity:1;stroke:none" /><path
         id="path3515"
         class="st5"
         d="m 229.3,126.6 c -3.1,4 -6,8.1 -8.9,12.2 -1.2,1.8 -2.4,3.5 -3.6,5.3 -0.7,1.1 -1.5,2.2 -2.2,3.4 -0.3,0.4 -0.5,0.8 -0.8,1.3 -0.7,1.1 -1.2,1.1 0.3,1.7 0.4,0.2 5.6,-7 6,-7.7 3.6,-6 7.5,-11.7 11.6,-17.3 -0.4,-0.2 -0.8,-0.4 -1.2,-0.5 -0.3,0.5 -0.8,1.1 -1.2,1.6 z"
         style="fill:#03e3ff;fill-opacity:1;stroke:none" /><path
         id="path3517"
         class="st5"
         d="m 262.7,89 c -0.7,1 -1.5,2 -2.4,2.9 1.1,-1.1 2.1,-2.2 3.2,-3.3 -0.7,-0.1 -1.3,-0.3 -2,-0.4 -3.8,4.1 -7.6,8.2 -11.2,12.4 -0.7,0.8 -1.3,1.5 -2,2.3 0.2,0.5 0.4,0.9 0.5,1.4 3.7,-4.2 7.5,-8.3 11.5,-12.4 0.9,-0.9 1.7,-1.9 2.4,-2.9 z"
         style="fill:#03e3ff;fill-opacity:1;stroke:none" /><path
         id="path3519"
         class="st5"
         d="m 205.3,196.5 c -5.9,-5.7 -4.1,-18.5 3.8,-35 -0.5,-0.1 -0.9,-0.3 -1.3,-0.5 -9.1,18.1 -11.5,32.2 -5.1,38.3 10.3,9.9 44.2,-10.7 76.6,-38.3 -0.1,-0.2 -0.3,-0.4 -0.4,-0.6 -34,29.8 -63.3,46.1 -73.6,36.1 z"
         style="fill:#03e3ff;fill-opacity:1;stroke:none" /><path
         id="path3521"
         class="st5"
         d="m 357.7,75.9 c -0.7,-0.3 -1.4,-0.6 -2.1,-1 -7.1,10.6 -16,22.2 -26.4,34.3 0.4,0.2 0.8,0.5 1.3,0.7 11.3,-12.7 20.3,-24 27.2,-34 z"
         style="fill:#03e3ff;fill-opacity:1;stroke:none" /><path
         id="path3523"
         class="st5"
         d="m 294.9,145.5 c 0.4,0.1 0.8,0.2 1.2,0.3 4.6,-4.4 9.1,-8.8 13.4,-13.2 0.6,-0.6 1.2,-1.3 1.8,-1.9 -0.1,-0.4 -0.3,-0.8 -0.4,-1.2 -0.7,0.8 -1.5,1.6 -2.2,2.3 -4.6,4.7 -9.2,9.3 -13.8,13.7 z"
         style="fill:#03e3ff;fill-opacity:1;stroke:none" /><path
         id="path3525"
         class="st5"
         d="m 312.7,127.5 c 0.1,0.3 0.2,0.7 0.3,1 0,0.1 0.1,0.2 0.1,0.3 5.8,-6.1 11.2,-11.9 16.1,-17.4 -0.4,-0.2 -0.8,-0.4 -1.3,-0.6 -4.7,5.4 -9.8,11.1 -15.2,16.7 z"
         style="fill:#03e3ff;fill-opacity:1;stroke:none" /><path
         id="path3527"
         class="st5"
         d="m 279.5,159.8 c 0.1,0.2 0.3,0.4 0.4,0.6 5.2,-4.4 10.3,-9 15.3,-13.7 -0.4,-0.1 -0.8,-0.2 -1.2,-0.3 -4.9,4.7 -9.8,9.2 -14.5,13.4 z"
         style="fill:#03e3ff;fill-opacity:1;stroke:none" /><path
         id="path3529"
         class="st5"
         d="m 241.3,27.2 c 2.3,-1.1 5,-1 8,0.2 0.3,-0.4 0.6,-0.9 0.9,-1.3 -3.4,-1.1 -6.5,-1 -9.3,0.3 -9.3,4.3 -9.2,25.6 -1.3,53 0.4,0.1 0.8,0.1 1.1,0.2 -6.8,-25.4 -8.2,-48.4 0.6,-52.4 z"
         style="fill:#03e3ff;fill-opacity:1;stroke:none" /><path
         id="path3531"
         class="st5"
         d="m 284.3,167.4 c 0.3,-0.2 0.5,-0.4 0.8,-0.6 -1.7,-2 -3.4,-4.1 -5.1,-6.4 -0.2,0.2 -0.4,0.4 -0.7,0.6 1.6,2.2 3.3,4.4 5,6.4 z"
         style="fill:#03e3ff;fill-opacity:1;stroke:none" /><path
         id="path3533"
         class="st5"
         d="m 265.3,138.2 c -0.3,-0.1 -0.6,-0.2 -0.9,-0.3 4.7,8.3 9.6,15.9 14.4,22.4 0.2,-0.2 0.4,-0.4 0.6,-0.6 -4.7,-6.1 -9.4,-13.4 -14.1,-21.5 z"
         style="fill:#03e3ff;fill-opacity:1;stroke:none" /><path
         id="path3535"
         class="st5"
         d="m 242.3,85.3 c -0.3,0 -0.7,-0.1 -1,-0.1 1.9,5.9 4.1,12 6.6,18.3 0.2,-0.2 0.3,-0.4 0.5,-0.5 -2.3,-5.9 -4.3,-11.8 -6.1,-17.7 z"
         style="fill:#03e3ff;fill-opacity:1;stroke:none" /><path
         id="path3537"
         class="st5"
         d="m 248.9,104.3 c -0.2,-0.5 -0.4,-0.9 -0.5,-1.4 -0.2,0.2 -0.3,0.4 -0.5,0.5 0.2,0.5 0.4,0.9 0.6,1.4 0.1,-0.1 0.2,-0.3 0.4,-0.5 z"
         style="fill:#03e3ff;fill-opacity:1;stroke:none" /><path
         id="path3539"
         class="st5"
         d="m 278.8,160.4 c 0.1,0.2 0.3,0.4 0.4,0.6 0.2,-0.2 0.4,-0.4 0.7,-0.6 -0.1,-0.2 -0.3,-0.4 -0.4,-0.6 -0.2,0.2 -0.5,0.4 -0.7,0.6 z"
         style="fill:#03e3ff;fill-opacity:1;stroke:none" /><path
         id="path3541"
         class="st5"
         d="m 317.3,154.5 c 1.1,7 2.4,15.7 -0.8,22.4 -1.4,2.9 -3.8,5 -7,5.3 -2.6,0.3 -5.2,-0.6 -7.6,-1.7 -1.6,-0.8 -3.1,-1.7 -4.5,-2.7 -0.7,-0.5 -1.6,-1.4 -2.4,-1.8 -1.2,-0.5 -0.7,-0.9 -1.9,0.1 -0.1,0.1 3.2,4.4 3.5,4.7 4.9,4.3 14.3,12 21.2,7.3 3.6,-2.5 4.3,-7.8 4.5,-11.8 0.5,-8.1 -0.6,-16.4 -2.5,-24.5 -1,-0.2 -2.1,-0.4 -3.2,-0.5 0.3,1.1 0.5,2.2 0.7,3.2 z"
         style="fill:#03e3ff;fill-opacity:1;stroke:none" /><path
         id="path3543"
         class="st5"
         d="m 289.7,79.5 c 2.6,5.1 5.1,10.2 7.5,15.4 0.9,0.3 1.9,0.7 2.8,1.1 -4.4,-9.4 -9.1,-18.7 -14.2,-27.8 -0.5,0.4 -1,0.8 -1.4,1.2 1.8,3.4 3.6,6.7 5.3,10.1 z"
         style="fill:#03e3ff;fill-opacity:1;stroke:none" /><path
         id="path3545"
         class="st5"
         d="m 316.4,149.8 c 1,0.2 2.1,0.3 3.1,0.5 -1.8,-7.4 -4.1,-14.6 -6.4,-21.5 -0.6,0.6 -1.2,1.3 -1.8,1.9 2.1,6.3 3.8,12.6 5.1,19.1 z"
         style="fill:#03e3ff;fill-opacity:1;stroke:none" /><path
         id="path3547"
         class="st5"
         d="m 273.1,48 c -0.2,-0.3 -0.4,-0.6 -0.6,-0.9 -0.2,-0.2 -0.3,-0.5 -0.5,-0.7 -0.6,-0.8 -1.2,-1.6 -1.7,-2.4 -1,-1.4 -2.1,-2.8 -3.2,-4.2 -0.1,-0.1 -0.2,-0.2 -0.3,-0.3 -0.5,0.4 -1,0.8 -1.5,1.1 0,0 3.2,4.2 3.5,4.6 1.5,1.9 3,3.8 4.4,5.8 0.3,0.5 0.7,1 1,1.5 3.2,4.7 6.1,9.5 8.9,14.5 0.5,-0.4 0.9,-0.8 1.4,-1.2 -3.6,-6.1 -7.4,-12.1 -11.4,-17.8 z"
         style="fill:#03e3ff;fill-opacity:1;stroke:none" /><path
         id="path3549"
         class="st5"
         d="m 283,67 c 0.4,0.8 0.9,1.6 1.3,2.4 0.5,-0.4 1,-0.8 1.4,-1.2 -0.5,-0.8 -0.9,-1.6 -1.4,-2.4 -0.4,0.4 -0.8,0.8 -1.3,1.2 z"
         style="fill:#03e3ff;fill-opacity:1;stroke:none" /><path
         id="path3551"
         class="st5"
         d="m 312.7,127.5 c -0.6,0.6 -1.2,1.3 -1.8,1.9 0.1,0.4 0.3,0.8 0.4,1.2 0.6,-0.6 1.2,-1.3 1.8,-1.9 0,-0.1 -0.1,-0.2 -0.1,-0.3 -0.1,-0.2 -0.2,-0.5 -0.3,-0.9 z"
         style="fill:#03e3ff;fill-opacity:1;stroke:none" /><path
         id="path3553"
         class="st5"
         d="m 239.6,79.5 c -6.6,-1.1 -13.2,-1.8 -19.9,-2.3 -9.7,-0.6 -20.6,-0.9 -29.8,2.6 -3,1.2 -6.3,3 -7.7,6 -2.7,5.9 3.5,11.7 7.7,15.3 0.1,-0.7 0.4,-1.4 0.9,-1.9 1.1,-1.1 2.6,-1.1 3.9,-0.5 -0.9,-1.7 -1.7,-3.6 -1.3,-5.3 1.6,-4.8 7.5,-6.8 11.9,-7.9 8,-2 17.5,-1.7 25.7,-1.3 3.4,0.2 6.8,0.5 10.2,0.8 -0.5,-1.8 -1.1,-3.6 -1.6,-5.5 z"
         style="fill:#03e3ff;fill-opacity:1;stroke:none" /><path
         id="path3555"
         class="st5"
         d="m 301.7,99.6 c 0.4,0.2 0.9,0.3 1.3,0.5 6.6,2.4 13,5.1 19.4,8 1.9,0.9 3.7,1.8 5.6,2.7 0.4,-0.5 0.8,-1 1.2,-1.4 -6,-3.3 -12.2,-6.3 -18.6,-9 -3.5,-1.5 -7.1,-2.9 -10.6,-4.3 0.3,0.6 0.6,1.3 0.9,2 0.3,0.4 0.5,0.9 0.8,1.5 z"
         style="fill:#03e3ff;fill-opacity:1;stroke:none" /><path
         id="path3557"
         class="st5"
         d="m 332.6,113 c 1.5,0.8 3,1.6 4.5,2.4 0.6,0.4 1.3,0.7 1.9,1.1 0.2,0.1 0.3,0.2 0.5,0.3 2.7,1.6 12.6,7.7 12.7,7.6 0.2,-0.4 0.5,-0.8 0.7,-1.1 -0.2,-0.2 -5.3,-3.2 -5.5,-3.4 -5.6,-3.4 -11.2,-6.8 -16.9,-9.9 -0.4,0.5 -0.8,0.9 -1.2,1.4 1,0.5 2.2,1.1 3.3,1.6 z"
         style="fill:#03e3ff;fill-opacity:1;stroke:none" /><path
         id="path3559"
         class="st5"
         d="m 261.5,88.3 c 1.1,-1.2 2.2,-2.3 3.3,-3.4 -0.4,-0.1 -0.7,-0.2 -1.1,-0.3 -7.6,-1.9 -15.2,-3.6 -23,-4.9 0.5,1.9 1,3.7 1.6,5.6 6.4,0.7 12.8,1.7 19.2,3 z"
         style="fill:#03e3ff;fill-opacity:1;stroke:none" /><path
         id="path3561"
         class="st5"
         d="m 263.5,88.7 c 1.1,-1.1 2.2,-2.2 3.3,-3.3 -0.7,-0.2 -1.4,-0.4 -2.1,-0.5 -1.1,1.1 -2.2,2.3 -3.3,3.4 0.8,0.1 1.5,0.2 2.1,0.4 z"
         style="fill:#03e3ff;fill-opacity:1;stroke:none" /><path
         id="path3563"
         class="st5"
         d="m 329.2,111.3 c 0.4,-0.5 0.8,-0.9 1.2,-1.4 -0.4,-0.2 -0.8,-0.5 -1.3,-0.7 -0.4,0.5 -0.8,1 -1.2,1.4 0.5,0.3 0.9,0.5 1.3,0.7 z"
         style="fill:#03e3ff;fill-opacity:1;stroke:none" /><path
         id="path3565"
         class="st5"
         d="m 240.7,79.7 c -0.4,-0.1 -0.8,-0.1 -1.1,-0.2 0.5,1.9 1.1,3.8 1.7,5.7 0.3,0 0.7,0.1 1,0.1 -0.5,-1.9 -1.1,-3.8 -1.6,-5.6 z"
         style="fill:#03e3ff;fill-opacity:1;stroke:none" /><path
         id="path3567"
         class="st5"
         d="m 298.8,98.6 c 0.9,0.3 1.9,0.7 2.8,1 -0.3,-0.6 -0.5,-1.1 -0.8,-1.7 -0.3,-0.7 -0.6,-1.3 -0.9,-2 -0.9,-0.4 -1.9,-0.7 -2.8,-1.1 0.6,1.3 1.2,2.5 1.7,3.8 z"
         style="fill:#03e3ff;fill-opacity:1;stroke:none" /><g
         style="fill:#03e3ff;fill-opacity:1;stroke:none"
         id="g3569"><path
           id="path3571"
           class="st5"
           d="m 365,143.8 c 1.5,-4.9 -2.1,-10.9 -9.4,-17.4 -0.3,0.3 -0.7,0.6 -1,0.9 7.1,6.1 11,11.8 9.6,16.3 -2.6,8.6 -20.1,10.3 -44.7,6.7 0.1,0.6 0.3,1.1 0.4,1.7 28,4.5 42.3,1.2 45.1,-8.2 z"
           style="fill:#03e3ff;fill-opacity:1;stroke:none" /></g><g
         style="fill:#03e3ff;fill-opacity:1;stroke:none"
         id="g3573"><path
           id="path3575"
           class="st5"
           d="m 204.7,111.5 c -0.1,0.1 -0.1,0.1 -0.1,0.2 4.1,2.6 21,11 26,13.3 0.1,-0.1 0.2,-0.2 0.2,-0.3 -5.1,-2.3 -21.9,-10.8 -26.1,-13.2 z"
           style="fill:#03e3ff;fill-opacity:1;stroke:none" /></g><g
         style="fill:#03e3ff;fill-opacity:1;stroke:none"
         id="g3577"><path
           id="path3579"
           class="st5"
           d="m 232,125.1 c -0.1,0.1 -0.2,0.2 -0.2,0.3 10.4,4.6 21.7,8.9 32.7,12.5 -0.2,-0.4 -0.4,-0.7 -0.6,-1.1 -11.6,-3.6 -22.3,-7.6 -31.9,-11.7 z"
           style="fill:#03e3ff;fill-opacity:1;stroke:none" /></g><g
         style="fill:#03e3ff;fill-opacity:1;stroke:none"
         id="g3581"><path
           id="path3583"
           class="st5"
           d="m 296.1,145.8 c -0.3,0.3 -0.6,0.6 -1,0.9 7.9,2 15.1,3.5 21.6,4.7 -0.1,-0.5 -0.2,-1.1 -0.3,-1.6 -6.3,-1 -13.1,-2.4 -20.3,-4 z"
           style="fill:#03e3ff;fill-opacity:1;stroke:none" /></g><g
         style="fill:#03e3ff;fill-opacity:1;stroke:none"
         id="g3585"><path
           id="path3587"
           class="st5"
           d="m 230.8,124.6 c -0.1,0.1 -0.2,0.2 -0.2,0.3 0.4,0.2 0.8,0.4 1.2,0.5 0.1,-0.1 0.2,-0.2 0.2,-0.3 -0.4,-0.1 -0.8,-0.3 -1.2,-0.5 z"
           style="fill:#03e3ff;fill-opacity:1;stroke:none" /></g><g
         style="fill:#03e3ff;fill-opacity:1;stroke:none"
         id="g3589"><path
           id="path3591"
           class="st5"
           d="m 294.9,145.5 c -0.3,0.3 -0.6,0.6 -0.9,0.9 0.4,0.1 0.8,0.2 1.2,0.3 0.3,-0.3 0.6,-0.6 1,-0.9 -0.5,-0.1 -0.9,-0.2 -1.3,-0.3 z"
           style="fill:#03e3ff;fill-opacity:1;stroke:none" /></g><g
         style="fill:#03e3ff;fill-opacity:1;stroke:none"
         id="g3593"><path
           id="path3595"
           class="st5"
           d="m 264.7,137.1 c -0.3,-0.1 -0.6,-0.2 -0.9,-0.3 0.2,0.4 0.4,0.7 0.6,1.1 0.3,0.1 0.6,0.2 0.9,0.3 -0.2,-0.3 -0.4,-0.7 -0.6,-1.1 z"
           style="fill:#03e3ff;fill-opacity:1;stroke:none" /></g><g
         style="fill:#03e3ff;fill-opacity:1;stroke:none"
         id="g3597"><path
           id="path3599"
           class="st5"
           d="m 316.8,151.4 c 1.1,0.2 2.1,0.4 3.2,0.5 -0.1,-0.6 -0.3,-1.1 -0.4,-1.7 -1,-0.1 -2,-0.3 -3.1,-0.5 0.1,0.6 0.2,1.2 0.3,1.7 z"
           style="fill:#03e3ff;fill-opacity:1;stroke:none" /></g></g><g
       id="g3601"
       style="fill:#03e3ff;fill-opacity:1;stroke:none"
       transform="translate(199.99993,0)"><path
         style="fill:#03e3ff;fill-opacity:1;stroke:none"
         d="m 279.9,96.4 c -9.8,0 -9.1,4.1 -9.1,4.1 l 0,4.3 9.5,0 0,1 -13.2,0 c 0,0 -6.3,-0.5 -6.3,9.3 0,9.8 5.5,9.7 5.5,9.7 l 3,0 0,-4.4 c 0,0 0.1,-5.6 5.7,-5.6 l 9.2,0 c 0,0 5.1,0.3 5.1,-4.8 l 0,-8.4 c 0,-0.1 0.8,-5.2 -9.4,-5.2 l 0,0 0,0 z m -5.1,3 c 0.9,0 1.7,0.7 1.7,1.7 0,0.9 -0.7,1.7 -1.7,1.7 -1,0 -1.7,-0.7 -1.7,-1.7 0.1,-1 0.8,-1.7 1.7,-1.7 l 0,0 0,0 z"
         class="st6"
         id="path3603" /><path
         style="fill:#03e3ff;fill-opacity:1;stroke:none"
         d="m 280,134.7 c 9.8,0 9.3,-4.4 9.3,-4.4 l 0.1,-4.5 -9.1,0 0,-1 12.8,0 c 0,0 6.3,0.5 6.3,-9.3 0,-9.8 -5.5,-9.7 -5.5,-9.7 l -2.6,0 0,4.9 c 0,0 -0.5,5.1 -6,5.1 l -9.3,0 c 0,0 -5.7,0.2 -5.7,5.4 l 0,8.4 c 0,0 -0.5,5.1 9.7,5.1 l 0,0 0,0 z m 5.4,-2.9 c -0.9,0 -1.7,-0.7 -1.7,-1.7 0,-0.9 0.7,-1.7 1.7,-1.7 1,0 1.7,0.7 1.7,1.7 0,0.9 -0.8,1.7 -1.7,1.7 l 0,0 0,0 z"
         class="st6"
         id="path3605" /></g><path
       style="fill:#03e3ff;fill-opacity:1;stroke:none"
       d="m 571.29993,56.5 c 4,3.5 3.8,9.8 -0.4,14 -4.2,4.2 -10.9,4.8 -15,1.3 -4,-3.5 -3.8,-9.8 0.4,-14 4.2,-4.2 10.9,-4.8 15,-1.3 z"
       class="st1"
       id="path3607" /><path
       style="fill:#03e3ff;fill-opacity:1;stroke:none"
       d="m 417.29993,148.8 c 2.6,2.3 2.5,6.3 -0.3,9.1 -2.7,2.7 -7.1,3.1 -9.7,0.8 -2.6,-2.3 -2.5,-6.3 0.3,-9.1 2.8,-2.7 7.1,-3.1 9.7,-0.8 z"
       class="st2"
       id="path3609" /><path
       style="fill:#03e3ff;fill-opacity:1;stroke:none"
       d="m 494.39993,168.2 c 2.6,2.3 2.5,6.3 -0.3,9.1 -2.7,2.7 -7.1,3.1 -9.7,0.8 -2.6,-2.3 -2.5,-6.3 0.3,-9.1 2.8,-2.7 7.1,-3.1 9.7,-0.8 z"
       class="st4"
       id="path3611" /></g><rect
     id="XMLID_529_"
     x="0"
     class="st0"
     width="485"
     height="220" /><path
     style="fill:url(#XMLID_530_);stroke:none"
     d="m 371.3,56.5 c 4,3.5 3.8,9.8 -0.4,14 -4.2,4.2 -10.9,4.8 -15,1.3 -4,-3.5 -3.8,-9.8 0.4,-14 4.2,-4.2 10.9,-4.8 15,-1.3 z"
     class="st1"
     id="XMLID_1501_" /><path
     style="fill:url(#XMLID_531_);stroke:none"
     d="m 217.3,148.8 c 2.6,2.3 2.5,6.3 -0.3,9.1 -2.7,2.7 -7.1,3.1 -9.7,0.8 -2.6,-2.3 -2.5,-6.3 0.3,-9.1 2.8,-2.7 7.1,-3.1 9.7,-0.8 z"
     class="st2"
     id="XMLID_1500_" /><path
     style="fill:url(#XMLID_532_);stroke:none"
     d="m 268,25.4 c 4,3.5 3.8,9.8 -0.4,14 -4.2,4.2 -10.9,4.8 -15,1.3 -4,-3.5 -3.8,-9.8 0.4,-14 4.2,-4.2 10.9,-4.8 15,-1.3 z"
     class="st3"
     id="XMLID_1499_" /><path
     style="fill:url(#XMLID_533_);stroke:none"
     d="m 294.4,168.2 c 2.6,2.3 2.5,6.3 -0.3,9.1 -2.7,2.7 -7.1,3.1 -9.7,0.8 -2.6,-2.3 -2.5,-6.3 0.3,-9.1 2.8,-2.7 7.1,-3.1 9.7,-0.8 z"
     class="st4"
     id="XMLID_1498_" /><g
     id="XMLID_1443_"
     style="fill:#03e3ff;fill-opacity:1;stroke:none"
     transform="translate(0,0.3255814)"><path
       style="fill:#03e3ff;fill-opacity:1;stroke:none"
       d="m 284.3,69.4 c -0.4,-0.8 -0.9,-1.6 -1.3,-2.4 -6.3,5.7 -12.3,11.7 -18.2,17.8 0.7,0.2 1.4,0.4 2.1,0.5 5.6,-5.5 11.4,-10.8 17.4,-15.9 z"
       class="st5"
       id="XMLID_1489_" /><path
       style="fill:#03e3ff;fill-opacity:1;stroke:none"
       d="m 248.4,104.8 c -0.2,-0.5 -0.4,-0.9 -0.6,-1.4 -5.9,6.9 -11.5,14 -17,21.1 0.4,0.2 0.8,0.3 1.2,0.5 5.2,-6.9 10.7,-13.6 16.4,-20.2 z"
       class="st5"
       id="XMLID_1488_" /><path
       style="fill:#03e3ff;fill-opacity:1;stroke:none"
       d="m 376.4,25.5 c -1.9,-3.8 -5.1,-6.3 -9.3,-7 -10.2,-1.6 -21.4,4 -30.1,8.6 -15.1,8 -29,18.4 -42,29.4 -3.6,3 -7.1,6.1 -10.6,9.3 0.5,0.8 0.9,1.6 1.4,2.4 10.6,-9 21.8,-17.2 33.6,-24.6 8.4,-5.3 17.3,-10.3 26.7,-13.6 5.4,-1.9 12.7,-4.1 18.3,-1.6 3.8,1.7 5.5,5.8 5.6,9.8 0.1,3.1 -0.5,6.1 -1.3,9.1 -0.5,1.8 -1.1,3.6 -1.8,5.3 -0.3,0.7 -1.2,2.1 -1.2,2.8 -0.5,0.6 -0.3,0.9 0.6,0.8 0.5,0.2 1.1,0.4 1.6,0.7 0.3,0.1 5.7,-7 6,-7.7 3,-7.1 6.1,-16.3 2.5,-23.7 z"
       class="st5"
       id="XMLID_1487_" /><path
       style="fill:#03e3ff;fill-opacity:1;stroke:none"
       d="m 229.3,126.6 c -3.1,4 -6,8.1 -8.9,12.2 -1.2,1.8 -2.4,3.5 -3.6,5.3 -0.7,1.1 -1.5,2.2 -2.2,3.4 -0.3,0.4 -0.5,0.8 -0.8,1.3 -0.7,1.1 -1.2,1.1 0.3,1.7 0.4,0.2 5.6,-7 6,-7.7 3.6,-6 7.5,-11.7 11.6,-17.3 -0.4,-0.2 -0.8,-0.4 -1.2,-0.5 -0.3,0.5 -0.8,1.1 -1.2,1.6 z"
       class="st5"
       id="XMLID_1486_" /><path
       style="fill:#03e3ff;fill-opacity:1;stroke:none"
       d="m 262.7,89 c -0.7,1 -1.5,2 -2.4,2.9 1.1,-1.1 2.1,-2.2 3.2,-3.3 -0.7,-0.1 -1.3,-0.3 -2,-0.4 -3.8,4.1 -7.6,8.2 -11.2,12.4 -0.7,0.8 -1.3,1.5 -2,2.3 0.2,0.5 0.4,0.9 0.5,1.4 3.7,-4.2 7.5,-8.3 11.5,-12.4 0.9,-0.9 1.7,-1.9 2.4,-2.9 z"
       class="st5"
       id="XMLID_1485_" /><path
       style="fill:#03e3ff;fill-opacity:1;stroke:none"
       d="m 205.3,196.5 c -5.9,-5.7 -4.1,-18.5 3.8,-35 -0.5,-0.1 -0.9,-0.3 -1.3,-0.5 -9.1,18.1 -11.5,32.2 -5.1,38.3 10.3,9.9 44.2,-10.7 76.6,-38.3 -0.1,-0.2 -0.3,-0.4 -0.4,-0.6 -34,29.8 -63.3,46.1 -73.6,36.1 z"
       class="st5"
       id="XMLID_1484_" /><path
       style="fill:#03e3ff;fill-opacity:1;stroke:none"
       d="m 357.7,75.9 c -0.7,-0.3 -1.4,-0.6 -2.1,-1 -7.1,10.6 -16,22.2 -26.4,34.3 0.4,0.2 0.8,0.5 1.3,0.7 11.3,-12.7 20.3,-24 27.2,-34 z"
       class="st5"
       id="XMLID_1483_" /><path
       style="fill:#03e3ff;fill-opacity:1;stroke:none"
       d="m 294.9,145.5 c 0.4,0.1 0.8,0.2 1.2,0.3 4.6,-4.4 9.1,-8.8 13.4,-13.2 0.6,-0.6 1.2,-1.3 1.8,-1.9 -0.1,-0.4 -0.3,-0.8 -0.4,-1.2 -0.7,0.8 -1.5,1.6 -2.2,2.3 -4.6,4.7 -9.2,9.3 -13.8,13.7 z"
       class="st5"
       id="XMLID_1482_" /><path
       style="fill:#03e3ff;fill-opacity:1;stroke:none"
       d="m 312.7,127.5 c 0.1,0.3 0.2,0.7 0.3,1 0,0.1 0.1,0.2 0.1,0.3 5.8,-6.1 11.2,-11.9 16.1,-17.4 -0.4,-0.2 -0.8,-0.4 -1.3,-0.6 -4.7,5.4 -9.8,11.1 -15.2,16.7 z"
       class="st5"
       id="XMLID_1481_" /><path
       style="fill:#03e3ff;fill-opacity:1;stroke:none"
       d="m 279.5,159.8 c 0.1,0.2 0.3,0.4 0.4,0.6 5.2,-4.4 10.3,-9 15.3,-13.7 -0.4,-0.1 -0.8,-0.2 -1.2,-0.3 -4.9,4.7 -9.8,9.2 -14.5,13.4 z"
       class="st5"
       id="XMLID_1480_" /><path
       style="fill:#03e3ff;fill-opacity:1;stroke:none"
       d="m 241.3,27.2 c 2.3,-1.1 5,-1 8,0.2 0.3,-0.4 0.6,-0.9 0.9,-1.3 -3.4,-1.1 -6.5,-1 -9.3,0.3 -9.3,4.3 -9.2,25.6 -1.3,53 0.4,0.1 0.8,0.1 1.1,0.2 -6.8,-25.4 -8.2,-48.4 0.6,-52.4 z"
       class="st5"
       id="XMLID_1479_" /><path
       style="fill:#03e3ff;fill-opacity:1;stroke:none"
       d="m 284.3,167.4 c 0.3,-0.2 0.5,-0.4 0.8,-0.6 -1.7,-2 -3.4,-4.1 -5.1,-6.4 -0.2,0.2 -0.4,0.4 -0.7,0.6 1.6,2.2 3.3,4.4 5,6.4 z"
       class="st5"
       id="XMLID_1478_" /><path
       style="fill:#03e3ff;fill-opacity:1;stroke:none"
       d="m 265.3,138.2 c -0.3,-0.1 -0.6,-0.2 -0.9,-0.3 4.7,8.3 9.6,15.9 14.4,22.4 0.2,-0.2 0.4,-0.4 0.6,-0.6 -4.7,-6.1 -9.4,-13.4 -14.1,-21.5 z"
       class="st5"
       id="XMLID_1477_" /><path
       style="fill:#03e3ff;fill-opacity:1;stroke:none"
       d="m 242.3,85.3 c -0.3,0 -0.7,-0.1 -1,-0.1 1.9,5.9 4.1,12 6.6,18.3 0.2,-0.2 0.3,-0.4 0.5,-0.5 -2.3,-5.9 -4.3,-11.8 -6.1,-17.7 z"
       class="st5"
       id="XMLID_1476_" /><path
       style="fill:#03e3ff;fill-opacity:1;stroke:none"
       d="m 248.9,104.3 c -0.2,-0.5 -0.4,-0.9 -0.5,-1.4 -0.2,0.2 -0.3,0.4 -0.5,0.5 0.2,0.5 0.4,0.9 0.6,1.4 0.1,-0.1 0.2,-0.3 0.4,-0.5 z"
       class="st5"
       id="XMLID_1475_" /><path
       style="fill:#03e3ff;fill-opacity:1;stroke:none"
       d="m 278.8,160.4 c 0.1,0.2 0.3,0.4 0.4,0.6 0.2,-0.2 0.4,-0.4 0.7,-0.6 -0.1,-0.2 -0.3,-0.4 -0.4,-0.6 -0.2,0.2 -0.5,0.4 -0.7,0.6 z"
       class="st5"
       id="XMLID_1474_" /><path
       style="fill:#03e3ff;fill-opacity:1;stroke:none"
       d="m 317.3,154.5 c 1.1,7 2.4,15.7 -0.8,22.4 -1.4,2.9 -3.8,5 -7,5.3 -2.6,0.3 -5.2,-0.6 -7.6,-1.7 -1.6,-0.8 -3.1,-1.7 -4.5,-2.7 -0.7,-0.5 -1.6,-1.4 -2.4,-1.8 -1.2,-0.5 -0.7,-0.9 -1.9,0.1 -0.1,0.1 3.2,4.4 3.5,4.7 4.9,4.3 14.3,12 21.2,7.3 3.6,-2.5 4.3,-7.8 4.5,-11.8 0.5,-8.1 -0.6,-16.4 -2.5,-24.5 -1,-0.2 -2.1,-0.4 -3.2,-0.5 0.3,1.1 0.5,2.2 0.7,3.2 z"
       class="st5"
       id="XMLID_1473_" /><path
       style="fill:#03e3ff;fill-opacity:1;stroke:none"
       d="m 289.7,79.5 c 2.6,5.1 5.1,10.2 7.5,15.4 0.9,0.3 1.9,0.7 2.8,1.1 -4.4,-9.4 -9.1,-18.7 -14.2,-27.8 -0.5,0.4 -1,0.8 -1.4,1.2 1.8,3.4 3.6,6.7 5.3,10.1 z"
       class="st5"
       id="XMLID_1472_" /><path
       style="fill:#03e3ff;fill-opacity:1;stroke:none"
       d="m 316.4,149.8 c 1,0.2 2.1,0.3 3.1,0.5 -1.8,-7.4 -4.1,-14.6 -6.4,-21.5 -0.6,0.6 -1.2,1.3 -1.8,1.9 2.1,6.3 3.8,12.6 5.1,19.1 z"
       class="st5"
       id="XMLID_1471_" /><path
       style="fill:#03e3ff;fill-opacity:1;stroke:none"
       d="m 273.1,48 c -0.2,-0.3 -0.4,-0.6 -0.6,-0.9 -0.2,-0.2 -0.3,-0.5 -0.5,-0.7 -0.6,-0.8 -1.2,-1.6 -1.7,-2.4 -1,-1.4 -2.1,-2.8 -3.2,-4.2 -0.1,-0.1 -0.2,-0.2 -0.3,-0.3 -0.5,0.4 -1,0.8 -1.5,1.1 0,0 3.2,4.2 3.5,4.6 1.5,1.9 3,3.8 4.4,5.8 0.3,0.5 0.7,1 1,1.5 3.2,4.7 6.1,9.5 8.9,14.5 0.5,-0.4 0.9,-0.8 1.4,-1.2 -3.6,-6.1 -7.4,-12.1 -11.4,-17.8 z"
       class="st5"
       id="XMLID_1470_" /><path
       style="fill:#03e3ff;fill-opacity:1;stroke:none"
       d="m 283,67 c 0.4,0.8 0.9,1.6 1.3,2.4 0.5,-0.4 1,-0.8 1.4,-1.2 -0.5,-0.8 -0.9,-1.6 -1.4,-2.4 -0.4,0.4 -0.8,0.8 -1.3,1.2 z"
       class="st5"
       id="XMLID_1469_" /><path
       style="fill:#03e3ff;fill-opacity:1;stroke:none"
       d="m 312.7,127.5 c -0.6,0.6 -1.2,1.3 -1.8,1.9 0.1,0.4 0.3,0.8 0.4,1.2 0.6,-0.6 1.2,-1.3 1.8,-1.9 0,-0.1 -0.1,-0.2 -0.1,-0.3 -0.1,-0.2 -0.2,-0.5 -0.3,-0.9 z"
       class="st5"
       id="XMLID_1468_" /><path
       style="fill:#03e3ff;fill-opacity:1;stroke:none"
       d="m 239.6,79.5 c -6.6,-1.1 -13.2,-1.8 -19.9,-2.3 -9.7,-0.6 -20.6,-0.9 -29.8,2.6 -3,1.2 -6.3,3 -7.7,6 -2.7,5.9 3.5,11.7 7.7,15.3 0.1,-0.7 0.4,-1.4 0.9,-1.9 1.1,-1.1 2.6,-1.1 3.9,-0.5 -0.9,-1.7 -1.7,-3.6 -1.3,-5.3 1.6,-4.8 7.5,-6.8 11.9,-7.9 8,-2 17.5,-1.7 25.7,-1.3 3.4,0.2 6.8,0.5 10.2,0.8 -0.5,-1.8 -1.1,-3.6 -1.6,-5.5 z"
       class="st5"
       id="XMLID_1467_" /><path
       style="fill:#03e3ff;fill-opacity:1;stroke:none"
       d="m 301.7,99.6 c 0.4,0.2 0.9,0.3 1.3,0.5 6.6,2.4 13,5.1 19.4,8 1.9,0.9 3.7,1.8 5.6,2.7 0.4,-0.5 0.8,-1 1.2,-1.4 -6,-3.3 -12.2,-6.3 -18.6,-9 -3.5,-1.5 -7.1,-2.9 -10.6,-4.3 0.3,0.6 0.6,1.3 0.9,2 0.3,0.4 0.5,0.9 0.8,1.5 z"
       class="st5"
       id="XMLID_1466_" /><path
       style="fill:#03e3ff;fill-opacity:1;stroke:none"
       d="m 332.6,113 c 1.5,0.8 3,1.6 4.5,2.4 0.6,0.4 1.3,0.7 1.9,1.1 0.2,0.1 0.3,0.2 0.5,0.3 2.7,1.6 12.6,7.7 12.7,7.6 0.2,-0.4 0.5,-0.8 0.7,-1.1 -0.2,-0.2 -5.3,-3.2 -5.5,-3.4 -5.6,-3.4 -11.2,-6.8 -16.9,-9.9 -0.4,0.5 -0.8,0.9 -1.2,1.4 1,0.5 2.2,1.1 3.3,1.6 z"
       class="st5"
       id="XMLID_1465_" /><path
       style="fill:#03e3ff;fill-opacity:1;stroke:none"
       d="m 261.5,88.3 c 1.1,-1.2 2.2,-2.3 3.3,-3.4 -0.4,-0.1 -0.7,-0.2 -1.1,-0.3 -7.6,-1.9 -15.2,-3.6 -23,-4.9 0.5,1.9 1,3.7 1.6,5.6 6.4,0.7 12.8,1.7 19.2,3 z"
       class="st5"
       id="XMLID_1464_" /><path
       style="fill:#03e3ff;fill-opacity:1;stroke:none"
       d="m 263.5,88.7 c 1.1,-1.1 2.2,-2.2 3.3,-3.3 -0.7,-0.2 -1.4,-0.4 -2.1,-0.5 -1.1,1.1 -2.2,2.3 -3.3,3.4 0.8,0.1 1.5,0.2 2.1,0.4 z"
       class="st5"
       id="XMLID_1463_" /><path
       style="fill:#03e3ff;fill-opacity:1;stroke:none"
       d="m 329.2,111.3 c 0.4,-0.5 0.8,-0.9 1.2,-1.4 -0.4,-0.2 -0.8,-0.5 -1.3,-0.7 -0.4,0.5 -0.8,1 -1.2,1.4 0.5,0.3 0.9,0.5 1.3,0.7 z"
       class="st5"
       id="XMLID_1462_" /><path
       style="fill:#03e3ff;fill-opacity:1;stroke:none"
       d="m 240.7,79.7 c -0.4,-0.1 -0.8,-0.1 -1.1,-0.2 0.5,1.9 1.1,3.8 1.7,5.7 0.3,0 0.7,0.1 1,0.1 -0.5,-1.9 -1.1,-3.8 -1.6,-5.6 z"
       class="st5"
       id="XMLID_1461_" /><path
       style="fill:#03e3ff;fill-opacity:1;stroke:none"
       d="m 298.8,98.6 c 0.9,0.3 1.9,0.7 2.8,1 -0.3,-0.6 -0.5,-1.1 -0.8,-1.7 -0.3,-0.7 -0.6,-1.3 -0.9,-2 -0.9,-0.4 -1.9,-0.7 -2.8,-1.1 0.6,1.3 1.2,2.5 1.7,3.8 z"
       class="st5"
       id="XMLID_1460_" /><g
       id="XMLID_1458_"
       style="fill:#03e3ff;fill-opacity:1;stroke:none"><path
         style="fill:#03e3ff;fill-opacity:1;stroke:none"
         d="m 365,143.8 c 1.5,-4.9 -2.1,-10.9 -9.4,-17.4 -0.3,0.3 -0.7,0.6 -1,0.9 7.1,6.1 11,11.8 9.6,16.3 -2.6,8.6 -20.1,10.3 -44.7,6.7 0.1,0.6 0.3,1.1 0.4,1.7 28,4.5 42.3,1.2 45.1,-8.2 z"
         class="st5"
         id="XMLID_1459_" /></g><g
       id="XMLID_1456_"
       style="fill:#03e3ff;fill-opacity:1;stroke:none"><path
         style="fill:#03e3ff;fill-opacity:1;stroke:none"
         d="m 204.7,111.5 c -0.1,0.1 -0.1,0.1 -0.1,0.2 4.1,2.6 21,11 26,13.3 0.1,-0.1 0.2,-0.2 0.2,-0.3 -5.1,-2.3 -21.9,-10.8 -26.1,-13.2 z"
         class="st5"
         id="XMLID_1457_" /></g><g
       id="XMLID_1454_"
       style="fill:#03e3ff;fill-opacity:1;stroke:none"><path
         style="fill:#03e3ff;fill-opacity:1;stroke:none"
         d="m 232,125.1 c -0.1,0.1 -0.2,0.2 -0.2,0.3 10.4,4.6 21.7,8.9 32.7,12.5 -0.2,-0.4 -0.4,-0.7 -0.6,-1.1 -11.6,-3.6 -22.3,-7.6 -31.9,-11.7 z"
         class="st5"
         id="XMLID_1455_" /></g><g
       id="XMLID_1452_"
       style="fill:#03e3ff;fill-opacity:1;stroke:none"><path
         style="fill:#03e3ff;fill-opacity:1;stroke:none"
         d="m 296.1,145.8 c -0.3,0.3 -0.6,0.6 -1,0.9 7.9,2 15.1,3.5 21.6,4.7 -0.1,-0.5 -0.2,-1.1 -0.3,-1.6 -6.3,-1 -13.1,-2.4 -20.3,-4 z"
         class="st5"
         id="XMLID_1453_" /></g><g
       id="XMLID_1450_"
       style="fill:#03e3ff;fill-opacity:1;stroke:none"><path
         style="fill:#03e3ff;fill-opacity:1;stroke:none"
         d="m 230.8,124.6 c -0.1,0.1 -0.2,0.2 -0.2,0.3 0.4,0.2 0.8,0.4 1.2,0.5 0.1,-0.1 0.2,-0.2 0.2,-0.3 -0.4,-0.1 -0.8,-0.3 -1.2,-0.5 z"
         class="st5"
         id="XMLID_1451_" /></g><g
       id="XMLID_1448_"
       style="fill:#03e3ff;fill-opacity:1;stroke:none"><path
         style="fill:#03e3ff;fill-opacity:1;stroke:none"
         d="m 294.9,145.5 c -0.3,0.3 -0.6,0.6 -0.9,0.9 0.4,0.1 0.8,0.2 1.2,0.3 0.3,-0.3 0.6,-0.6 1,-0.9 -0.5,-0.1 -0.9,-0.2 -1.3,-0.3 z"
         class="st5"
         id="XMLID_1449_" /></g><g
       id="XMLID_1446_"
       style="fill:#03e3ff;fill-opacity:1;stroke:none"><path
         style="fill:#03e3ff;fill-opacity:1;stroke:none"
         d="m 264.7,137.1 c -0.3,-0.1 -0.6,-0.2 -0.9,-0.3 0.2,0.4 0.4,0.7 0.6,1.1 0.3,0.1 0.6,0.2 0.9,0.3 -0.2,-0.3 -0.4,-0.7 -0.6,-1.1 z"
         class="st5"
         id="XMLID_1447_" /></g><g
       id="XMLID_1444_"
       style="fill:#03e3ff;fill-opacity:1;stroke:none"><path
         style="fill:#03e3ff;fill-opacity:1;stroke:none"
         d="m 316.8,151.4 c 1.1,0.2 2.1,0.4 3.2,0.5 -0.1,-0.6 -0.3,-1.1 -0.4,-1.7 -1,-0.1 -2,-0.3 -3.1,-0.5 0.1,0.6 0.2,1.2 0.3,1.7 z"
         class="st5"
         id="XMLID_1445_" /></g></g><g
     style="stroke:none;fill:#ffffff;fill-opacity:1"
     id="XMLID_1435_"><path
       id="XMLID_1439_"
       class="st6"
       d="m 279.9,96.4 c -9.8,0 -9.1,4.1 -9.1,4.1 l 0,4.3 9.5,0 0,1 -13.2,0 c 0,0 -6.3,-0.5 -6.3,9.3 0,9.8 5.5,9.7 5.5,9.7 l 3,0 0,-4.4 c 0,0 0.1,-5.6 5.7,-5.6 l 9.2,0 c 0,0 5.1,0.3 5.1,-4.8 l 0,-8.4 c 0,-0.1 0.8,-5.2 -9.4,-5.2 l 0,0 0,0 z m -5.1,3 c 0.9,0 1.7,0.7 1.7,1.7 0,0.9 -0.7,1.7 -1.7,1.7 -1,0 -1.7,-0.7 -1.7,-1.7 0.1,-1 0.8,-1.7 1.7,-1.7 l 0,0 0,0 z"
       style="fill:#ffffff;stroke:none;fill-opacity:1" /><path
       id="XMLID_1436_"
       class="st6"
       d="m 280,134.7 c 9.8,0 9.3,-4.4 9.3,-4.4 l 0.1,-4.5 -9.1,0 0,-1 12.8,0 c 0,0 6.3,0.5 6.3,-9.3 0,-9.8 -5.5,-9.7 -5.5,-9.7 l -2.6,0 0,4.9 c 0,0 -0.5,5.1 -6,5.1 l -9.3,0 c 0,0 -5.7,0.2 -5.7,5.4 l 0,8.4 c 0,0 -0.5,5.1 9.7,5.1 l 0,0 0,0 z m 5.4,-2.9 c -0.9,0 -1.7,-0.7 -1.7,-1.7 0,-0.9 0.7,-1.7 1.7,-1.7 1,0 1.7,0.7 1.7,1.7 0,0.9 -0.8,1.7 -1.7,1.7 l 0,0 0,0 z"
       style="fill:#ffffff;stroke:none;fill-opacity:1" /></g><g
     id="XMLID_611_"
     style="fill:#ffffff;fill-opacity:1;filter:url(#filter5591);opacity:0.5"><g
       id="XMLID_676_"
       style="fill:#ffffff;fill-opacity:1"><path
         id="XMLID_686_"
         class="st6"
         d="m 32.6,138.7 -10.9,0 0,-45.1 20.3,0 c 5.4,0 9.6,1.2 12.5,3.6 3,2.4 4.4,6.1 4.4,11 0,5 -1.5,8.9 -4.5,11.6 -3,2.7 -7.2,4.1 -12.5,4.1 l -9.3,0 0,14.8 z m 8,-23.2 c 2.2,0 3.8,-0.6 4.9,-1.7 1.1,-1.2 1.6,-2.7 1.6,-4.7 0,-4.6 -2.2,-6.9 -6.5,-6.9 l -8,0 0,13.3 8,0 z"
         style="fill:#ffffff;fill-opacity:1" /><path
         id="XMLID_684_"
         class="st6"
         d="m 143.5,93.6 -15.7,25.7 0,19.3 -10.9,0 0,-19.5 -17.2,-25.5 13.4,0 10.2,17.1 9.3,-17.1 10.9,0 z"
         style="fill:#ffffff;fill-opacity:1" /><path
         id="XMLID_682_"
         class="st6"
         d="m 181.3,116.2 c 0,-15.7 7.4,-23.6 22.2,-23.6 4.5,0 9.3,1.1 14.3,3.3 l 0,9.5 c -4.3,-2.9 -8.6,-4.3 -12.8,-4.3 -4.1,0 -7.2,1.2 -9.3,3.5 -2.1,2.3 -3.1,6.2 -3.1,11.6 0,5.4 1,9.2 3.1,11.5 2.1,2.3 5.3,3.4 9.7,3.4 1.8,0 3.8,-0.3 5.9,-1 2.1,-0.7 4.3,-1.7 6.5,-3.2 l 0,9.5 c -1.8,0.9 -4.1,1.7 -6.8,2.3 -2.7,0.6 -5.2,0.9 -7.6,0.9 -14.7,0 -22.1,-7.8 -22.1,-23.4 z"
         style="fill:#ffffff;fill-opacity:1" /><path
         id="XMLID_677_"
         class="st6"
         d="m 378.2,93.6 10.1,0 0,45.1 -8.3,0 -21,-27.4 0,27.4 -10.1,0 0,-45.1 9.3,0 19.9,26.8 0,-26.8 z"
         style="fill:#ffffff;fill-opacity:1" /></g></g><g
     id="XMLID_600_"
     style="fill:#ffffff;fill-opacity:1;opacity:0.5;filter:url(#filter7621)"><g
       id="XMLID_648_"
       style="fill:#ffffff;fill-opacity:1"><path
         id="XMLID_658_"
         class="st6"
         d="m 439.6,110.1 0,4.7 -14.7,0 0,-3.6 c 1.3,-0.8 2.7,-1.8 4.1,-3 1.4,-1.2 2.6,-2.6 3.6,-3.9 1,-1.4 1.5,-2.6 1.5,-3.7 0,-1.1 -0.3,-1.9 -1,-2.4 -0.7,-0.5 -1.5,-0.8 -2.6,-0.8 -0.9,0 -1.8,0.2 -2.6,0.6 -0.8,0.4 -1.7,1 -2.8,1.7 l 0,-4.3 c 2.1,-1.3 4.4,-1.9 6.9,-1.9 2.3,0 4.1,0.6 5.3,1.7 1.2,1.1 1.9,2.7 1.9,4.8 0,1.4 -0.4,2.7 -1.2,3.9 -0.8,1.2 -1.7,2.3 -2.8,3.3 -1.1,1 -2.4,2 -3.9,3.1 l 8.3,0 z"
         style="fill:#ffffff;fill-opacity:1" /><path
         id="XMLID_655_"
         class="st6"
         d="m 447.3,112.5 c -1.5,-1.8 -2.2,-4.5 -2.2,-8.2 0,-3.7 0.7,-6.4 2.2,-8.2 1.5,-1.8 3.8,-2.7 6.9,-2.7 3.1,0 5.4,0.9 6.9,2.7 1.5,1.8 2.2,4.5 2.2,8.2 0,3.7 -0.7,6.4 -2.2,8.2 -1.5,1.8 -3.8,2.7 -6.9,2.7 -3.1,0 -5.5,-0.9 -6.9,-2.7 z m 9.7,-2.8 c 0.7,-0.9 1.1,-2.7 1.1,-5.4 0,-2.6 -0.4,-4.4 -1.1,-5.4 -0.7,-0.9 -1.7,-1.4 -2.9,-1.4 -1.2,0 -2.1,0.5 -2.8,1.4 -0.7,0.9 -1.1,2.7 -1.1,5.4 0,2.7 0.4,4.5 1.1,5.4 0.7,0.9 1.7,1.4 2.8,1.4 1.3,0 2.2,-0.5 2.9,-1.4 z"
         style="fill:#ffffff;fill-opacity:1" /><path
         id="XMLID_653_"
         class="st6"
         d="m 430.9,139 0,-16 -4.1,2.3 0,-4.5 4.7,-2.7 4.5,0 0,21 -5.1,0 z"
         style="fill:#ffffff;fill-opacity:1" /><path
         id="XMLID_649_"
         class="st6"
         d="m 448.3,137.7 c -1.4,-1.1 -2.2,-2.7 -2.2,-4.6 0,-1.3 0.4,-2.3 1.1,-3.1 0.7,-0.8 1.5,-1.4 2.5,-1.8 -0.8,-0.4 -1.5,-1 -2.1,-1.7 -0.6,-0.7 -0.9,-1.7 -0.9,-2.8 0,-2 0.7,-3.5 2,-4.5 1.3,-1 3.3,-1.5 6,-1.5 2.7,0 4.7,0.5 6,1.5 1.3,1 2,2.5 2,4.5 0,1.2 -0.3,2.2 -0.9,2.9 -0.6,0.7 -1.3,1.2 -2.1,1.6 0.9,0.4 1.8,1 2.5,1.8 0.7,0.8 1.1,1.8 1.1,3.1 0,1.9 -0.7,3.5 -2.2,4.6 -1.5,1.1 -3.6,1.7 -6.4,1.7 -2.8,0 -4.9,-0.5 -6.4,-1.7 z m 8.9,-3.2 c 0.5,-0.6 0.7,-1.4 0.7,-2.2 0,-0.7 -0.3,-1.4 -0.8,-1.9 -0.6,-0.5 -1.4,-0.8 -2.4,-0.8 -1,0 -1.8,0.3 -2.4,0.8 -0.6,0.5 -0.8,1.2 -0.8,1.9 0,0.8 0.2,1.6 0.7,2.2 0.5,0.7 1.3,1 2.5,1 1.2,0 2,-0.4 2.5,-1 z m -0.6,-8.4 c 0.6,-0.4 0.8,-1.1 0.8,-1.9 0,-0.8 -0.3,-1.4 -0.8,-1.8 -0.5,-0.5 -1.2,-0.7 -2,-0.7 -0.8,0 -1.5,0.2 -2,0.7 -0.5,0.5 -0.8,1.1 -0.8,1.8 0,0.8 0.3,1.4 0.8,1.9 0.6,0.4 1.2,0.7 1.9,0.7 0.9,-0.1 1.6,-0.3 2.1,-0.7 z"
         style="fill:#ffffff;fill-opacity:1" /></g></g><g
     style="fill:#ffffff;fill-opacity:1;opacity:1"
     id="g5595"><g
       style="fill:#ffffff;fill-opacity:1"
       id="g5597"
       transform="translate(0,0.54347826)"><path
         style="fill:#ffffff;fill-opacity:1"
         d="m 32.6,138.7 -10.9,0 0,-45.1 20.3,0 c 5.4,0 9.6,1.2 12.5,3.6 3,2.4 4.4,6.1 4.4,11 0,5 -1.5,8.9 -4.5,11.6 -3,2.7 -7.2,4.1 -12.5,4.1 l -9.3,0 0,14.8 z m 8,-23.2 c 2.2,0 3.8,-0.6 4.9,-1.7 1.1,-1.2 1.6,-2.7 1.6,-4.7 0,-4.6 -2.2,-6.9 -6.5,-6.9 l -8,0 0,13.3 8,0 z"
         class="st6"
         id="path5599" /><path
         style="fill:#ffffff;fill-opacity:1"
         d="m 143.5,93.6 -15.7,25.7 0,19.3 -10.9,0 0,-19.5 -17.2,-25.5 13.4,0 10.2,17.1 9.3,-17.1 10.9,0 z"
         class="st6"
         id="path5601" /><path
         style="fill:#ffffff;fill-opacity:1"
         d="m 181.3,116.2 c 0,-15.7 7.4,-23.6 22.2,-23.6 4.5,0 9.3,1.1 14.3,3.3 l 0,9.5 c -4.3,-2.9 -8.6,-4.3 -12.8,-4.3 -4.1,0 -7.2,1.2 -9.3,3.5 -2.1,2.3 -3.1,6.2 -3.1,11.6 0,5.4 1,9.2 3.1,11.5 2.1,2.3 5.3,3.4 9.7,3.4 1.8,0 3.8,-0.3 5.9,-1 2.1,-0.7 4.3,-1.7 6.5,-3.2 l 0,9.5 c -1.8,0.9 -4.1,1.7 -6.8,2.3 -2.7,0.6 -5.2,0.9 -7.6,0.9 -14.7,0 -22.1,-7.8 -22.1,-23.4 z"
         class="st6"
         id="path5603" /><path
         style="fill:#ffffff;fill-opacity:1"
         d="m 378.2,93.6 10.1,0 0,45.1 -8.3,0 -21,-27.4 0,27.4 -10.1,0 0,-45.1 9.3,0 19.9,26.8 0,-26.8 z"
         class="st6"
         id="path5605" /></g></g><g
     style="fill:#ffffff;fill-opacity:1;opacity:1"
     id="g6003"><g
       style="fill:#ffffff;fill-opacity:1"
       id="g6005"><path
         style="fill:#ffffff;fill-opacity:1"
         d="m 439.6,110.1 0,4.7 -14.7,0 0,-3.6 c 1.3,-0.8 2.7,-1.8 4.1,-3 1.4,-1.2 2.6,-2.6 3.6,-3.9 1,-1.4 1.5,-2.6 1.5,-3.7 0,-1.1 -0.3,-1.9 -1,-2.4 -0.7,-0.5 -1.5,-0.8 -2.6,-0.8 -0.9,0 -1.8,0.2 -2.6,0.6 -0.8,0.4 -1.7,1 -2.8,1.7 l 0,-4.3 c 2.1,-1.3 4.4,-1.9 6.9,-1.9 2.3,0 4.1,0.6 5.3,1.7 1.2,1.1 1.9,2.7 1.9,4.8 0,1.4 -0.4,2.7 -1.2,3.9 -0.8,1.2 -1.7,2.3 -2.8,3.3 -1.1,1 -2.4,2 -3.9,3.1 l 8.3,0 z"
         class="st6"
         id="path6007" /><path
         style="fill:#ffffff;fill-opacity:1"
         d="m 447.3,112.5 c -1.5,-1.8 -2.2,-4.5 -2.2,-8.2 0,-3.7 0.7,-6.4 2.2,-8.2 1.5,-1.8 3.8,-2.7 6.9,-2.7 3.1,0 5.4,0.9 6.9,2.7 1.5,1.8 2.2,4.5 2.2,8.2 0,3.7 -0.7,6.4 -2.2,8.2 -1.5,1.8 -3.8,2.7 -6.9,2.7 -3.1,0 -5.5,-0.9 -6.9,-2.7 z m 9.7,-2.8 c 0.7,-0.9 1.1,-2.7 1.1,-5.4 0,-2.6 -0.4,-4.4 -1.1,-5.4 -0.7,-0.9 -1.7,-1.4 -2.9,-1.4 -1.2,0 -2.1,0.5 -2.8,1.4 -0.7,0.9 -1.1,2.7 -1.1,5.4 0,2.7 0.4,4.5 1.1,5.4 0.7,0.9 1.7,1.4 2.8,1.4 1.3,0 2.2,-0.5 2.9,-1.4 z"
         class="st6"
         id="path6009" /><path
         style="fill:#ffffff;fill-opacity:1"
         d="m 430.9,139 0,-16 -4.1,2.3 0,-4.5 4.7,-2.7 4.5,0 0,21 -5.1,0 z"
         class="st6"
         id="path6011" /><path
         style="fill:#ffffff;fill-opacity:1"
         d="m 448.3,137.7 c -1.4,-1.1 -2.2,-2.7 -2.2,-4.6 0,-1.3 0.4,-2.3 1.1,-3.1 0.7,-0.8 1.5,-1.4 2.5,-1.8 -0.8,-0.4 -1.5,-1 -2.1,-1.7 -0.6,-0.7 -0.9,-1.7 -0.9,-2.8 0,-2 0.7,-3.5 2,-4.5 1.3,-1 3.3,-1.5 6,-1.5 2.7,0 4.7,0.5 6,1.5 1.3,1 2,2.5 2,4.5 0,1.2 -0.3,2.2 -0.9,2.9 -0.6,0.7 -1.3,1.2 -2.1,1.6 0.9,0.4 1.8,1 2.5,1.8 0.7,0.8 1.1,1.8 1.1,3.1 0,1.9 -0.7,3.5 -2.2,4.6 -1.5,1.1 -3.6,1.7 -6.4,1.7 -2.8,0 -4.9,-0.5 -6.4,-1.7 z m 8.9,-3.2 c 0.5,-0.6 0.7,-1.4 0.7,-2.2 0,-0.7 -0.3,-1.4 -0.8,-1.9 -0.6,-0.5 -1.4,-0.8 -2.4,-0.8 -1,0 -1.8,0.3 -2.4,0.8 -0.6,0.5 -0.8,1.2 -0.8,1.9 0,0.8 0.2,1.6 0.7,2.2 0.5,0.7 1.3,1 2.5,1 1.2,0 2,-0.4 2.5,-1 z m -0.6,-8.4 c 0.6,-0.4 0.8,-1.1 0.8,-1.9 0,-0.8 -0.3,-1.4 -0.8,-1.8 -0.5,-0.5 -1.2,-0.7 -2,-0.7 -0.8,0 -1.5,0.2 -2,0.7 -0.5,0.5 -0.8,1.1 -0.8,1.8 0,0.8 0.3,1.4 0.8,1.9 0.6,0.4 1.2,0.7 1.9,0.7 0.9,-0.1 1.6,-0.3 2.1,-0.7 z"
         class="st6"
         id="path6013" /></g></g><path
     id="path6039"
     class="st1"
     d="m 371.3,56.5 c 4,3.5 3.8,9.8 -0.4,14 -4.2,4.2 -10.9,4.8 -15,1.3 -4,-3.5 -3.8,-9.8 0.4,-14 4.2,-4.2 10.9,-4.8 15,-1.3 z"
     style="fill:url(#XMLID_530_);stroke:none" /><path
     id="path6041"
     class="st2"
     d="m 217.3,148.8 c 2.6,2.3 2.5,6.3 -0.3,9.1 -2.7,2.7 -7.1,3.1 -9.7,0.8 -2.6,-2.3 -2.5,-6.3 0.3,-9.1 2.8,-2.7 7.1,-3.1 9.7,-0.8 z"
     style="fill:url(#XMLID_531_);stroke:none" /><path
     id="path6045"
     class="st4"
     d="m 294.4,168.2 c 2.6,2.3 2.5,6.3 -0.3,9.1 -2.7,2.7 -7.1,3.1 -9.7,0.8 -2.6,-2.3 -2.5,-6.3 0.3,-9.1 2.8,-2.7 7.1,-3.1 9.7,-0.8 z"
     style="fill:url(#XMLID_533_);stroke:none" /><g
     id="text4308"
     style="font-style:normal;font-weight:normal;font-size:40px;line-height:125%;font-family:sans-serif;letter-spacing:0px;word-spacing:0px;fill:#000000;fill-opacity:1;stroke:none;stroke-width:1px;stroke-linecap:butt;stroke-linejoin:miter;stroke-opacity:1"><path
       id="path4313"
       style="font-style:normal;font-variant:normal;font-weight:normal;font-stretch:normal;font-size:17.5px;font-family:'Maven Pro';-inkscape-font-specification:'Maven Pro';letter-spacing:2.20000005px;word-spacing:0px;fill:#ffffff"
       d="m 25.904345,148.6721 -4.13,0 0,-1.19 9.5025,0 0,1.19 -4.1125,0 0,10.4825 -1.26,0 0,-10.4825 z" /><path
       id="path4315"
       style="font-style:normal;font-variant:normal;font-weight:normal;font-stretch:normal;font-size:17.5px;font-family:'Maven Pro';-inkscape-font-specification:'Maven Pro';letter-spacing:2.20000005px;word-spacing:0px;fill:#ffffff"
       d="m 39.112392,150.2646 q 1.645,0 2.5025,0.9275 0.8575,0.91 0.8575,2.7825 l 0,5.18 -1.26,0 0,-5.18 q 0,-1.225 -0.5775,-1.89 -0.56,-0.665 -1.6625,-0.665 -1.225,0 -2.5025,0.7 l 0,7.035 -1.26,0 0,-12.6 1.26,0 0,4.445 q 0.6475,-0.35 1.33,-0.5425 0.7,-0.1925 1.3125,-0.1925 z" /><path
       id="path4317"
       style="font-style:normal;font-variant:normal;font-weight:normal;font-stretch:normal;font-size:17.5px;font-family:'Maven Pro';-inkscape-font-specification:'Maven Pro';letter-spacing:2.20000005px;word-spacing:0px;fill:#ffffff"
       d="m 50.887899,150.2646 q 1.995,0 2.9225,1.295 0.9275,1.295 0.8925,3.4475 l -6.37,0 q 0,1.575 0.735,2.415 0.735,0.84 2.1,0.84 1.75,0 2.9925,-0.7525 l 0,1.295 q -1.2775,0.6125 -3.0625,0.6125 -1.9075,0 -2.975,-1.1725 -1.0675,-1.19 -1.0675,-3.465 0,-2.2225 0.9975,-3.36 1.015,-1.155 2.835,-1.155 z m 0,1.155 q -1.155,0 -1.75,0.5425 -0.595,0.525 -0.7525,1.89 l 4.9875,0 q -0.0875,-1.225 -0.7,-1.82 -0.595,-0.6125 -1.785,-0.6125 z" /><path
       id="path4319"
       style="font-style:normal;font-variant:normal;font-weight:normal;font-stretch:normal;font-size:17.5px;font-family:'Maven Pro';-inkscape-font-specification:'Maven Pro';letter-spacing:2.20000005px;word-spacing:0px;fill:#ffffff"
       d="m 73.276805,155.5146 -5.04,0 -1.4,3.64 -1.365,0 4.655,-11.6725 1.26,0 4.6375,11.6725 -1.3475,0 -1.4,-3.64 z m -0.4725,-1.2075 -2.0475,-5.3375 -2.0475,5.3375 4.095,0 z" /><path
       id="path4321"
       style="font-style:normal;font-variant:normal;font-weight:normal;font-stretch:normal;font-size:17.5px;font-family:'Maven Pro';-inkscape-font-specification:'Maven Pro';letter-spacing:2.20000005px;word-spacing:0px;fill:#ffffff"
       d="m 79.966923,151.1221 q 0.665,-0.28 1.75,-0.56 1.1025,-0.2975 2.275,-0.2975 0.175,0 0.56,0.105 l 0,1.12 q -0.42,-0.0525 -0.84,-0.0525 -0.5775,0 -1.0675,0.07 -0.49,0.07 -1.4175,0.2275 l 0,7.42 -1.26,0 0,-8.0325 z" /><path
       id="path4323"
       style="font-style:normal;font-variant:normal;font-weight:normal;font-stretch:normal;font-size:17.5px;font-family:'Maven Pro';-inkscape-font-specification:'Maven Pro';letter-spacing:2.20000005px;word-spacing:0px;fill:#ffffff"
       d="m 91.5111,159.2946 q -0.9625,0 -1.575,-0.5775 -0.6125,-0.595 -0.6125,-1.68 l 0,-5.46 -1.5225,0 0,-1.155 1.5225,0 0,-2.4675 1.26,0 0,2.4675 2.2575,0 0,1.155 -2.2575,0 0,5.0575 q 0,0.77 0.245,1.12 0.245,0.35 0.91,0.35 0.6475,0 1.1025,-0.21 l 0,1.19 q -0.245,0.0875 -0.63,0.14 -0.3675,0.07 -0.7,0.07 z" /><path
       id="path4325"
       style="font-style:normal;font-variant:normal;font-weight:normal;font-stretch:normal;font-size:17.5px;font-family:'Maven Pro';-inkscape-font-specification:'Maven Pro';letter-spacing:2.20000005px;word-spacing:0px;fill:#ffffff"
       d="m 108.16712,159.4171 q -2.0125,0 -3.0275,-1.19 -0.9975,-1.19 -0.9975,-3.4125 0,-2.2575 1.015,-3.395 1.0325,-1.155 2.975,-1.155 2.0475,0 3.045,1.225 0.9975,1.2075 0.9975,3.325 0,2.17 -1.05,3.395 -1.05,1.2075 -2.9575,1.2075 z m -0.0175,-1.155 q 2.765,0 2.765,-3.4475 0,-1.645 -0.6475,-2.52 -0.6475,-0.875 -2.1175,-0.875 -2.7475,0 -2.7475,3.395 0,3.4475 2.7475,3.4475 z" /><path
       id="path4327"
       style="font-style:normal;font-variant:normal;font-weight:normal;font-stretch:normal;font-size:17.5px;font-family:'Maven Pro';-inkscape-font-specification:'Maven Pro';letter-spacing:2.20000005px;word-spacing:0px;fill:#ffffff"
       d="m 117.53091,151.5771 -1.505,0 0,-1.155 1.505,0 0,-0.4725 q 0,-1.4525 0.5075,-2.1525 0.5075,-0.7175 1.085,-0.875 0.595,-0.175 1.225,-0.175 0.4725,0 0.84,0.105 l 0,1.12 q -0.35,-0.07 -0.63,-0.07 -0.56,0 -0.91,0.105 -0.35,0.105 -0.6125,0.5425 -0.245,0.4375 -0.245,1.3825 l 0,0.49 2.3975,0 0,1.155 -2.3975,0 0,7.5775 -1.26,0 0,-7.5775 z" /><path
       id="path4329"
       style="font-style:normal;font-variant:normal;font-weight:normal;font-stretch:normal;font-size:17.5px;font-family:'Maven Pro';-inkscape-font-specification:'Maven Pro';letter-spacing:2.20000005px;word-spacing:0px;fill:#ffffff"
       d="m 137.68282,159.2946 q -2.695,0 -4.06,-1.505 -1.3475,-1.505 -1.3475,-4.48 0,-2.975 1.3475,-4.48 1.365,-1.505 4.06,-1.505 1.785,0 3.5525,0.8575 l 0,1.2075 q -1.645,-0.875 -3.4125,-0.875 -2.205,0 -3.22,1.155 -1.015,1.155 -1.015,3.64 0,2.5025 0.9975,3.6575 1.015,1.1375 3.2375,1.1375 1.855,0 3.4125,-0.8575 l 0,1.2075 q -1.785,0.84 -3.5525,0.84 z" /><path
       id="path4331"
       style="font-style:normal;font-variant:normal;font-weight:normal;font-stretch:normal;font-size:17.5px;font-family:'Maven Pro';-inkscape-font-specification:'Maven Pro';letter-spacing:2.20000005px;word-spacing:0px;fill:#ffffff"
       d="m 149.36946,159.4171 q -2.0125,0 -3.0275,-1.19 -0.9975,-1.19 -0.9975,-3.4125 0,-2.2575 1.015,-3.395 1.0325,-1.155 2.975,-1.155 2.0475,0 3.045,1.225 0.9975,1.2075 0.9975,3.325 0,2.17 -1.05,3.395 -1.05,1.2075 -2.9575,1.2075 z m -0.0175,-1.155 q 2.765,0 2.765,-3.4475 0,-1.645 -0.6475,-2.52 -0.6475,-0.875 -2.1175,-0.875 -2.7475,0 -2.7475,3.395 0,3.4475 2.7475,3.4475 z" /><path
       id="path4333"
       style="font-style:normal;font-variant:normal;font-weight:normal;font-stretch:normal;font-size:17.5px;font-family:'Maven Pro';-inkscape-font-specification:'Maven Pro';letter-spacing:2.20000005px;word-spacing:0px;fill:#ffffff"
       d="m 165.08576,146.7296 0,10.92 q 0,0.8925 -1.1375,1.33 -1.12,0.4375 -2.45,0.4375 -1.61,0 -2.8,-1.0325 -1.19,-1.05 -1.2075,-3.71 0,-2.065 0.9975,-3.22 1.015,-1.1725 2.9925,-1.1725 0.455,0 1.12,0.1575 0.6825,0.14 1.225,0.35 l 0,-4.06 1.26,0 z m -1.26,5.32 q -0.525,-0.2975 -1.155,-0.455 -0.6125,-0.1575 -1.19,-0.1575 -1.365,0 -2.0125,0.875 -0.6475,0.8575 -0.6475,2.3625 0,1.645 0.595,2.625 0.595,0.9625 2.1525,0.9625 0.9275,0 1.5925,-0.21 0.665,-0.21 0.665,-0.525 l 0,-5.4775 z" /><path
       id="path4335"
       style="font-style:normal;font-variant:normal;font-weight:normal;font-stretch:normal;font-size:17.5px;font-family:'Maven Pro';-inkscape-font-specification:'Maven Pro';letter-spacing:2.20000005px;word-spacing:0px;fill:#ffffff"
       d="m 170.07454,147.4821 1.4,0 0,1.3825 -1.4,0 0,-1.3825 z m 0.07,2.94 1.26,0 0,8.7325 -1.26,0 0,-8.7325 z" /><path
       id="path4337"
       style="font-style:normal;font-variant:normal;font-weight:normal;font-stretch:normal;font-size:17.5px;font-family:'Maven Pro';-inkscape-font-specification:'Maven Pro';letter-spacing:2.20000005px;word-spacing:0px;fill:#ffffff"
       d="m 176.47864,151.1221 q 1.6975,-0.8575 3.6925,-0.8575 1.8375,0 2.6425,0.805 0.8225,0.805 0.8225,2.3975 l 0,5.6875 -1.26,0 0,-5.6875 q 0,-2.065 -2.345,-2.065 -1.085,0 -2.2925,0.35 l 0,7.4025 -1.26,0 0,-8.0325 z" /><path
       id="path4339"
       style="font-style:normal;font-variant:normal;font-weight:normal;font-stretch:normal;font-size:17.5px;font-family:'Maven Pro';-inkscape-font-specification:'Maven Pro';letter-spacing:2.20000005px;word-spacing:0px;fill:#ffffff"
       d="m 192.43993,150.2821 q 1.4,0 2.3625,0.5425 0.98,0.525 0.98,1.6275 l 0,7.07 q 0,1.295 -0.84,2.1875 -0.84,0.91 -2.9575,0.91 -0.595,0 -1.12,-0.105 -0.5075,-0.0875 -0.8925,-0.1925 -0.3675,-0.0875 -0.4725,-0.105 l 0,-1.19 q 0.6825,0.1925 1.19,0.2975 0.525,0.105 1.155,0.105 1.5925,0 2.135,-0.525 0.5425,-0.525 0.5425,-1.3475 l 0,-0.6475 q -0.5425,0.21 -1.225,0.35 -0.665,0.1575 -1.12,0.1575 -1.9775,0 -2.9925,-1.155 -0.9975,-1.1725 -0.9975,-3.2375 0.0175,-2.6775 1.2425,-3.71 1.225,-1.0325 3.01,-1.0325 z m -2.9225,4.7425 q 0,1.505 0.6475,2.38 0.6475,0.8575 2.0125,0.8575 0.5775,0 1.19,-0.1575 0.63,-0.1575 1.155,-0.455 l 0,-5.0225 q 0,-0.6825 -0.5425,-0.9275 -0.525,-0.2625 -1.435,-0.2625 -1.75,0 -2.3975,0.9625 -0.63,0.9625 -0.63,2.625 z" /></g></svg>