<?xml version="1.0" encoding="UTF-8" standalone="no"?>
<svg
   xmlns:dc="http://purl.org/dc/elements/1.1/"
   xmlns:cc="http://creativecommons.org/ns#"
   xmlns:rdf="http://www.w3.org/1999/02/22-rdf-syntax-ns#"
   xmlns:svg="http://www.w3.org/2000/svg"
   xmlns="http://www.w3.org/2000/svg"
   height="200"
   width="200"
   xml:space="preserve"
   viewBox="0 0 200 200"
   y="0px"
   x="0px"
   id="Layer_1"
   version="1.1"><metadata
     id="metadata126"><rdf:RDF><cc:Work
         rdf:about=""><dc:format>image/svg+xml</dc:format><dc:type
           rdf:resource="http://purl.org/dc/dcmitype/StillImage" /><dc:title></dc:title></cc:Work></rdf:RDF></metadata><defs
     id="defs124" /><style
     id="style3"
     type="text/css">
	.st0{fill:none;}
	.st1{fill:url(#XMLID_530_);}
	.st2{fill:url(#XMLID_531_);}
	.st3{fill:url(#XMLID_532_);}
	.st4{fill:url(#XMLID_533_);}
	.st5{fill:#03E3FF;}
	.st6{fill:#FFFFFF;}
</style><rect
     style="fill:none"
     y="-20"
     height="220"
     width="485"
     class="st0"
     x="0"
     id="XMLID_529_" /><g
     transform="translate(0,-20)"
     id="XMLID_1801_"><g
       style="fill:#03e3ff;fill-opacity:1"
       transform="matrix(0.9975594,0,0,0.99128278,-179.098,10.937976)"
       id="g4260"><g
         style="fill:#03e3ff;fill-opacity:1"
         id="g4262"><radialGradient
           id="radialGradient4264"
           cx="363.58209"
           cy="64.204697"
           r="10.2828"
           gradientUnits="userSpaceOnUse"><stop
             offset="0.4021"
             style="stop-color:#5DECFF"
             id="stop4266" /><stop
             offset="1"
             style="stop-color:#03E3FF"
             id="stop4268" /></radialGradient><path
           style="fill:#03e3ff;fill-opacity:1"
           id="path4270"
           class="st1"
           d="m 371.3,56.5 c 4,3.5 3.8,9.8 -0.4,14 -4.2,4.2 -10.9,4.8 -15,1.3 -4,-3.5 -3.8,-9.8 0.4,-14 4.2,-4.2 10.9,-4.8 15,-1.3 z" /><radialGradient
           id="radialGradient4272"
           cx="212.3847"
           cy="153.76379"
           r="6.6336002"
           gradientUnits="userSpaceOnUse"><stop
             offset="0.4021"
             style="stop-color:#5DECFF"
             id="stop4274" /><stop
             offset="1"
             style="stop-color:#03E3FF"
             id="stop4276" /></radialGradient><path
           style="fill:#03e3ff;fill-opacity:1"
           id="path4278"
           class="st2"
           d="m 217.3,148.8 c 2.6,2.3 2.5,6.3 -0.3,9.1 -2.7,2.7 -7.1,3.1 -9.7,0.8 -2.6,-2.3 -2.5,-6.3 0.3,-9.1 2.8,-2.7 7.1,-3.1 9.7,-0.8 z" /><radialGradient
           id="radialGradient4280"
           cx="260.26379"
           cy="33.066299"
           r="10.2827"
           gradientUnits="userSpaceOnUse"><stop
             offset="0.4021"
             style="stop-color:#5DECFF"
             id="stop4282" /><stop
             offset="1"
             style="stop-color:#03E3FF"
             id="stop4284" /></radialGradient><path
           style="fill:#03e3ff;fill-opacity:1"
           id="path4286"
           class="st3"
           d="m 268,25.4 c 4,3.5 3.8,9.8 -0.4,14 -4.2,4.2 -10.9,4.8 -15,1.3 -4,-3.5 -3.8,-9.8 0.4,-14 4.2,-4.2 10.9,-4.8 15,-1.3 z" /><radialGradient
           id="radialGradient4288"
           cx="289.4577"
           cy="173.125"
           r="6.6345"
           gradientUnits="userSpaceOnUse"><stop
             offset="0.4021"
             style="stop-color:#5DECFF"
             id="stop4290" /><stop
             offset="1"
             style="stop-color:#03E3FF"
             id="stop4292" /></radialGradient><path
           style="fill:#03e3ff;fill-opacity:1"
           id="path4294"
           class="st4"
           d="m 294.4,168.2 c 2.6,2.3 2.5,6.3 -0.3,9.1 -2.7,2.7 -7.1,3.1 -9.7,0.8 -2.6,-2.3 -2.5,-6.3 0.3,-9.1 2.8,-2.7 7.1,-3.1 9.7,-0.8 z" /><g
           style="fill:#03e3ff;fill-opacity:1"
           id="g4296"><path
             style="fill:#03e3ff;fill-opacity:1"
             id="path4298"
             class="st5"
             d="m 284.3,69.4 c -0.4,-0.8 -0.9,-1.6 -1.3,-2.4 -6.3,5.7 -12.3,11.7 -18.2,17.8 0.7,0.2 1.4,0.4 2.1,0.5 5.6,-5.5 11.4,-10.8 17.4,-15.9 z" /><path
             style="fill:#03e3ff;fill-opacity:1"
             id="path4300"
             class="st5"
             d="m 248.4,104.8 c -0.2,-0.5 -0.4,-0.9 -0.6,-1.4 -5.9,6.9 -11.5,14 -17,21.1 0.4,0.2 0.8,0.3 1.2,0.5 5.2,-6.9 10.7,-13.6 16.4,-20.2 z" /><path
             style="fill:#03e3ff;fill-opacity:1"
             id="path4302"
             class="st5"
             d="m 376.4,25.5 c -1.9,-3.8 -5.1,-6.3 -9.3,-7 -10.2,-1.6 -21.4,4 -30.1,8.6 -15.1,8 -29,18.4 -42,29.4 -3.6,3 -7.1,6.1 -10.6,9.3 0.5,0.8 0.9,1.6 1.4,2.4 10.6,-9 21.8,-17.2 33.6,-24.6 8.4,-5.3 17.3,-10.3 26.7,-13.6 5.4,-1.9 12.7,-4.1 18.3,-1.6 3.8,1.7 5.5,5.8 5.6,9.8 0.1,3.1 -0.5,6.1 -1.3,9.1 -0.5,1.8 -1.1,3.6 -1.8,5.3 -0.3,0.7 -1.2,2.1 -1.2,2.8 -0.5,0.6 -0.3,0.9 0.6,0.8 0.5,0.2 1.1,0.4 1.6,0.7 0.3,0.1 5.7,-7 6,-7.7 3,-7.1 6.1,-16.3 2.5,-23.7 z" /><path
             style="fill:#03e3ff;fill-opacity:1"
             id="path4304"
             class="st5"
             d="m 229.3,126.6 c -3.1,4 -6,8.1 -8.9,12.2 -1.2,1.8 -2.4,3.5 -3.6,5.3 -0.7,1.1 -1.5,2.2 -2.2,3.4 -0.3,0.4 -0.5,0.8 -0.8,1.3 -0.7,1.1 -1.2,1.1 0.3,1.7 0.4,0.2 5.6,-7 6,-7.7 3.6,-6 7.5,-11.7 11.6,-17.3 -0.4,-0.2 -0.8,-0.4 -1.2,-0.5 -0.3,0.5 -0.8,1.1 -1.2,1.6 z" /><path
             style="fill:#03e3ff;fill-opacity:1"
             id="path4306"
             class="st5"
             d="m 262.7,89 c -0.7,1 -1.5,2 -2.4,2.9 1.1,-1.1 2.1,-2.2 3.2,-3.3 -0.7,-0.1 -1.3,-0.3 -2,-0.4 -3.8,4.1 -7.6,8.2 -11.2,12.4 -0.7,0.8 -1.3,1.5 -2,2.3 0.2,0.5 0.4,0.9 0.5,1.4 3.7,-4.2 7.5,-8.3 11.5,-12.4 0.9,-0.9 1.7,-1.9 2.4,-2.9 z" /><path
             style="fill:#03e3ff;fill-opacity:1"
             id="path4308"
             class="st5"
             d="m 205.3,196.5 c -5.9,-5.7 -4.1,-18.5 3.8,-35 -0.5,-0.1 -0.9,-0.3 -1.3,-0.5 -9.1,18.1 -11.5,32.2 -5.1,38.3 10.3,9.9 44.2,-10.7 76.6,-38.3 -0.1,-0.2 -0.3,-0.4 -0.4,-0.6 -34,29.8 -63.3,46.1 -73.6,36.1 z" /><path
             style="fill:#03e3ff;fill-opacity:1"
             id="path4310"
             class="st5"
             d="m 357.7,75.9 c -0.7,-0.3 -1.4,-0.6 -2.1,-1 -7.1,10.6 -16,22.2 -26.4,34.3 0.4,0.2 0.8,0.5 1.3,0.7 11.3,-12.7 20.3,-24 27.2,-34 z" /><path
             style="fill:#03e3ff;fill-opacity:1"
             id="path4312"
             class="st5"
             d="m 294.9,145.5 c 0.4,0.1 0.8,0.2 1.2,0.3 4.6,-4.4 9.1,-8.8 13.4,-13.2 0.6,-0.6 1.2,-1.3 1.8,-1.9 -0.1,-0.4 -0.3,-0.8 -0.4,-1.2 -0.7,0.8 -1.5,1.6 -2.2,2.3 -4.6,4.7 -9.2,9.3 -13.8,13.7 z" /><path
             style="fill:#03e3ff;fill-opacity:1"
             id="path4314"
             class="st5"
             d="m 312.7,127.5 c 0.1,0.3 0.2,0.7 0.3,1 0,0.1 0.1,0.2 0.1,0.3 5.8,-6.1 11.2,-11.9 16.1,-17.4 -0.4,-0.2 -0.8,-0.4 -1.3,-0.6 -4.7,5.4 -9.8,11.1 -15.2,16.7 z" /><path
             style="fill:#03e3ff;fill-opacity:1"
             id="path4316"
             class="st5"
             d="m 279.5,159.8 c 0.1,0.2 0.3,0.4 0.4,0.6 5.2,-4.4 10.3,-9 15.3,-13.7 -0.4,-0.1 -0.8,-0.2 -1.2,-0.3 -4.9,4.7 -9.8,9.2 -14.5,13.4 z" /><path
             style="fill:#03e3ff;fill-opacity:1"
             id="path4318"
             class="st5"
             d="m 241.3,27.2 c 2.3,-1.1 5,-1 8,0.2 0.3,-0.4 0.6,-0.9 0.9,-1.3 -3.4,-1.1 -6.5,-1 -9.3,0.3 -9.3,4.3 -9.2,25.6 -1.3,53 0.4,0.1 0.8,0.1 1.1,0.2 -6.8,-25.4 -8.2,-48.4 0.6,-52.4 z" /><path
             style="fill:#03e3ff;fill-opacity:1"
             id="path4320"
             class="st5"
             d="m 284.3,167.4 c 0.3,-0.2 0.5,-0.4 0.8,-0.6 -1.7,-2 -3.4,-4.1 -5.1,-6.4 -0.2,0.2 -0.4,0.4 -0.7,0.6 1.6,2.2 3.3,4.4 5,6.4 z" /><path
             style="fill:#03e3ff;fill-opacity:1"
             id="path4322"
             class="st5"
             d="m 265.3,138.2 c -0.3,-0.1 -0.6,-0.2 -0.9,-0.3 4.7,8.3 9.6,15.9 14.4,22.4 0.2,-0.2 0.4,-0.4 0.6,-0.6 -4.7,-6.1 -9.4,-13.4 -14.1,-21.5 z" /><path
             style="fill:#03e3ff;fill-opacity:1"
             id="path4324"
             class="st5"
             d="m 242.3,85.3 c -0.3,0 -0.7,-0.1 -1,-0.1 1.9,5.9 4.1,12 6.6,18.3 0.2,-0.2 0.3,-0.4 0.5,-0.5 -2.3,-5.9 -4.3,-11.8 -6.1,-17.7 z" /><path
             style="fill:#03e3ff;fill-opacity:1"
             id="path4326"
             class="st5"
             d="m 248.9,104.3 c -0.2,-0.5 -0.4,-0.9 -0.5,-1.4 -0.2,0.2 -0.3,0.4 -0.5,0.5 0.2,0.5 0.4,0.9 0.6,1.4 0.1,-0.1 0.2,-0.3 0.4,-0.5 z" /><path
             style="fill:#03e3ff;fill-opacity:1"
             id="path4328"
             class="st5"
             d="m 278.8,160.4 c 0.1,0.2 0.3,0.4 0.4,0.6 0.2,-0.2 0.4,-0.4 0.7,-0.6 -0.1,-0.2 -0.3,-0.4 -0.4,-0.6 -0.2,0.2 -0.5,0.4 -0.7,0.6 z" /><path
             style="fill:#03e3ff;fill-opacity:1"
             id="path4330"
             class="st5"
             d="m 317.3,154.5 c 1.1,7 2.4,15.7 -0.8,22.4 -1.4,2.9 -3.8,5 -7,5.3 -2.6,0.3 -5.2,-0.6 -7.6,-1.7 -1.6,-0.8 -3.1,-1.7 -4.5,-2.7 -0.7,-0.5 -1.6,-1.4 -2.4,-1.8 -1.2,-0.5 -0.7,-0.9 -1.9,0.1 -0.1,0.1 3.2,4.4 3.5,4.7 4.9,4.3 14.3,12 21.2,7.3 3.6,-2.5 4.3,-7.8 4.5,-11.8 0.5,-8.1 -0.6,-16.4 -2.5,-24.5 -1,-0.2 -2.1,-0.4 -3.2,-0.5 0.3,1.1 0.5,2.2 0.7,3.2 z" /><path
             style="fill:#03e3ff;fill-opacity:1"
             id="path4332"
             class="st5"
             d="m 289.7,79.5 c 2.6,5.1 5.1,10.2 7.5,15.4 0.9,0.3 1.9,0.7 2.8,1.1 -4.4,-9.4 -9.1,-18.7 -14.2,-27.8 -0.5,0.4 -1,0.8 -1.4,1.2 1.8,3.4 3.6,6.7 5.3,10.1 z" /><path
             style="fill:#03e3ff;fill-opacity:1"
             id="path4334"
             class="st5"
             d="m 316.4,149.8 c 1,0.2 2.1,0.3 3.1,0.5 -1.8,-7.4 -4.1,-14.6 -6.4,-21.5 -0.6,0.6 -1.2,1.3 -1.8,1.9 2.1,6.3 3.8,12.6 5.1,19.1 z" /><path
             style="fill:#03e3ff;fill-opacity:1"
             id="path4336"
             class="st5"
             d="m 273.1,48 c -0.2,-0.3 -0.4,-0.6 -0.6,-0.9 -0.2,-0.2 -0.3,-0.5 -0.5,-0.7 -0.6,-0.8 -1.2,-1.6 -1.7,-2.4 -1,-1.4 -2.1,-2.8 -3.2,-4.2 -0.1,-0.1 -0.2,-0.2 -0.3,-0.3 -0.5,0.4 -1,0.8 -1.5,1.1 0,0 3.2,4.2 3.5,4.6 1.5,1.9 3,3.8 4.4,5.8 0.3,0.5 0.7,1 1,1.5 3.2,4.7 6.1,9.5 8.9,14.5 0.5,-0.4 0.9,-0.8 1.4,-1.2 -3.6,-6.1 -7.4,-12.1 -11.4,-17.8 z" /><path
             style="fill:#03e3ff;fill-opacity:1"
             id="path4338"
             class="st5"
             d="m 283,67 c 0.4,0.8 0.9,1.6 1.3,2.4 0.5,-0.4 1,-0.8 1.4,-1.2 -0.5,-0.8 -0.9,-1.6 -1.4,-2.4 -0.4,0.4 -0.8,0.8 -1.3,1.2 z" /><path
             style="fill:#03e3ff;fill-opacity:1"
             id="path4340"
             class="st5"
             d="m 312.7,127.5 c -0.6,0.6 -1.2,1.3 -1.8,1.9 0.1,0.4 0.3,0.8 0.4,1.2 0.6,-0.6 1.2,-1.3 1.8,-1.9 0,-0.1 -0.1,-0.2 -0.1,-0.3 -0.1,-0.2 -0.2,-0.5 -0.3,-0.9 z" /><path
             style="fill:#03e3ff;fill-opacity:1"
             id="path4342"
             class="st5"
             d="m 239.6,79.5 c -6.6,-1.1 -13.2,-1.8 -19.9,-2.3 -9.7,-0.6 -20.6,-0.9 -29.8,2.6 -3,1.2 -6.3,3 -7.7,6 -2.7,5.9 3.5,11.7 7.7,15.3 0.1,-0.7 0.4,-1.4 0.9,-1.9 1.1,-1.1 2.6,-1.1 3.9,-0.5 -0.9,-1.7 -1.7,-3.6 -1.3,-5.3 1.6,-4.8 7.5,-6.8 11.9,-7.9 8,-2 17.5,-1.7 25.7,-1.3 3.4,0.2 6.8,0.5 10.2,0.8 -0.5,-1.8 -1.1,-3.6 -1.6,-5.5 z" /><path
             style="fill:#03e3ff;fill-opacity:1"
             id="path4344"
             class="st5"
             d="m 301.7,99.6 c 0.4,0.2 0.9,0.3 1.3,0.5 6.6,2.4 13,5.1 19.4,8 1.9,0.9 3.7,1.8 5.6,2.7 0.4,-0.5 0.8,-1 1.2,-1.4 -6,-3.3 -12.2,-6.3 -18.6,-9 -3.5,-1.5 -7.1,-2.9 -10.6,-4.3 0.3,0.6 0.6,1.3 0.9,2 0.3,0.4 0.5,0.9 0.8,1.5 z" /><path
             style="fill:#03e3ff;fill-opacity:1"
             id="path4346"
             class="st5"
             d="m 332.6,113 c 1.5,0.8 3,1.6 4.5,2.4 0.6,0.4 1.3,0.7 1.9,1.1 0.2,0.1 0.3,0.2 0.5,0.3 2.7,1.6 12.6,7.7 12.7,7.6 0.2,-0.4 0.5,-0.8 0.7,-1.1 -0.2,-0.2 -5.3,-3.2 -5.5,-3.4 -5.6,-3.4 -11.2,-6.8 -16.9,-9.9 -0.4,0.5 -0.8,0.9 -1.2,1.4 1,0.5 2.2,1.1 3.3,1.6 z" /><path
             style="fill:#03e3ff;fill-opacity:1"
             id="path4348"
             class="st5"
             d="m 261.5,88.3 c 1.1,-1.2 2.2,-2.3 3.3,-3.4 -0.4,-0.1 -0.7,-0.2 -1.1,-0.3 -7.6,-1.9 -15.2,-3.6 -23,-4.9 0.5,1.9 1,3.7 1.6,5.6 6.4,0.7 12.8,1.7 19.2,3 z" /><path
             style="fill:#03e3ff;fill-opacity:1"
             id="path4350"
             class="st5"
             d="m 263.5,88.7 c 1.1,-1.1 2.2,-2.2 3.3,-3.3 -0.7,-0.2 -1.4,-0.4 -2.1,-0.5 -1.1,1.1 -2.2,2.3 -3.3,3.4 0.8,0.1 1.5,0.2 2.1,0.4 z" /><path
             style="fill:#03e3ff;fill-opacity:1"
             id="path4352"
             class="st5"
             d="m 329.2,111.3 c 0.4,-0.5 0.8,-0.9 1.2,-1.4 -0.4,-0.2 -0.8,-0.5 -1.3,-0.7 -0.4,0.5 -0.8,1 -1.2,1.4 0.5,0.3 0.9,0.5 1.3,0.7 z" /><path
             style="fill:#03e3ff;fill-opacity:1"
             id="path4354"
             class="st5"
             d="m 240.7,79.7 c -0.4,-0.1 -0.8,-0.1 -1.1,-0.2 0.5,1.9 1.1,3.8 1.7,5.7 0.3,0 0.7,0.1 1,0.1 -0.5,-1.9 -1.1,-3.8 -1.6,-5.6 z" /><path
             style="fill:#03e3ff;fill-opacity:1"
             id="path4356"
             class="st5"
             d="m 298.8,98.6 c 0.9,0.3 1.9,0.7 2.8,1 -0.3,-0.6 -0.5,-1.1 -0.8,-1.7 -0.3,-0.7 -0.6,-1.3 -0.9,-2 -0.9,-0.4 -1.9,-0.7 -2.8,-1.1 0.6,1.3 1.2,2.5 1.7,3.8 z" /><g
             style="fill:#03e3ff;fill-opacity:1"
             id="g4358"><path
               style="fill:#03e3ff;fill-opacity:1"
               id="path4360"
               class="st5"
               d="m 365,143.8 c 1.5,-4.9 -2.1,-10.9 -9.4,-17.4 -0.3,0.3 -0.7,0.6 -1,0.9 7.1,6.1 11,11.8 9.6,16.3 -2.6,8.6 -20.1,10.3 -44.7,6.7 0.1,0.6 0.3,1.1 0.4,1.7 28,4.5 42.3,1.2 45.1,-8.2 z" /></g><g
             style="fill:#03e3ff;fill-opacity:1"
             id="g4362"><path
               style="fill:#03e3ff;fill-opacity:1"
               id="path4364"
               class="st5"
               d="m 204.7,111.5 c -0.1,0.1 -0.1,0.1 -0.1,0.2 4.1,2.6 21,11 26,13.3 0.1,-0.1 0.2,-0.2 0.2,-0.3 -5.1,-2.3 -21.9,-10.8 -26.1,-13.2 z" /></g><g
             style="fill:#03e3ff;fill-opacity:1"
             id="g4366"><path
               style="fill:#03e3ff;fill-opacity:1"
               id="path4368"
               class="st5"
               d="m 232,125.1 c -0.1,0.1 -0.2,0.2 -0.2,0.3 10.4,4.6 21.7,8.9 32.7,12.5 -0.2,-0.4 -0.4,-0.7 -0.6,-1.1 -11.6,-3.6 -22.3,-7.6 -31.9,-11.7 z" /></g><g
             style="fill:#03e3ff;fill-opacity:1"
             id="g4370"><path
               style="fill:#03e3ff;fill-opacity:1"
               id="path4372"
               class="st5"
               d="m 296.1,145.8 c -0.3,0.3 -0.6,0.6 -1,0.9 7.9,2 15.1,3.5 21.6,4.7 -0.1,-0.5 -0.2,-1.1 -0.3,-1.6 -6.3,-1 -13.1,-2.4 -20.3,-4 z" /></g><g
             style="fill:#03e3ff;fill-opacity:1"
             id="g4374"><path
               style="fill:#03e3ff;fill-opacity:1"
               id="path4376"
               class="st5"
               d="m 230.8,124.6 c -0.1,0.1 -0.2,0.2 -0.2,0.3 0.4,0.2 0.8,0.4 1.2,0.5 0.1,-0.1 0.2,-0.2 0.2,-0.3 -0.4,-0.1 -0.8,-0.3 -1.2,-0.5 z" /></g><g
             style="fill:#03e3ff;fill-opacity:1"
             id="g4378"><path
               style="fill:#03e3ff;fill-opacity:1"
               id="path4380"
               class="st5"
               d="m 294.9,145.5 c -0.3,0.3 -0.6,0.6 -0.9,0.9 0.4,0.1 0.8,0.2 1.2,0.3 0.3,-0.3 0.6,-0.6 1,-0.9 -0.5,-0.1 -0.9,-0.2 -1.3,-0.3 z" /></g><g
             style="fill:#03e3ff;fill-opacity:1"
             id="g4382"><path
               style="fill:#03e3ff;fill-opacity:1"
               id="path4384"
               class="st5"
               d="m 264.7,137.1 c -0.3,-0.1 -0.6,-0.2 -0.9,-0.3 0.2,0.4 0.4,0.7 0.6,1.1 0.3,0.1 0.6,0.2 0.9,0.3 -0.2,-0.3 -0.4,-0.7 -0.6,-1.1 z" /></g><g
             style="fill:#03e3ff;fill-opacity:1"
             id="g4386"><path
               style="fill:#03e3ff;fill-opacity:1"
               id="path4388"
               class="st5"
               d="m 316.8,151.4 c 1.1,0.2 2.1,0.4 3.2,0.5 -0.1,-0.6 -0.3,-1.1 -0.4,-1.7 -1,-0.1 -2,-0.3 -3.1,-0.5 0.1,0.6 0.2,1.2 0.3,1.7 z" /></g></g><path
           d="m 290.02026,101.57711 c 5.67156,4.96261 5.38798,13.8953 -0.56715,19.85043 -5.95513,5.95513 -15.45498,6.80586 -21.26832,1.84326 -5.67155,-4.96261 -5.38798,-13.89531 0.56715,-19.85044 5.95513,-5.955125 15.45498,-6.805858 21.26832,-1.84325 z"
           class="st3"
           id="path4542"
           style="fill:#03e3ff;fill-opacity:1" /><path
           d="m 206.51102,113.81755 c -2.32447,4.77984 -8.45518,6.24419 -13.61212,3.29699 -5.15694,-2.9472 -7.49834,-9.25337 -5.20018,-14.12969 2.32446,-4.779838 8.45518,-6.244189 13.61212,-3.29699 5.15694,2.9472 7.49834,9.25337 5.20018,14.12969 z"
           class="st1"
           id="path4546"
           style="fill:#03e3ff;fill-opacity:1" /></g></g></g></svg>