<?xml version="1.0" encoding="UTF-8" standalone="no"?>
<svg
   xmlns:dc="http://purl.org/dc/elements/1.1/"
   xmlns:cc="http://creativecommons.org/ns#"
   xmlns:rdf="http://www.w3.org/1999/02/22-rdf-syntax-ns#"
   xmlns:svg="http://www.w3.org/2000/svg"
   xmlns="http://www.w3.org/2000/svg"
   xmlns:sodipodi="http://sodipodi.sourceforge.net/DTD/sodipodi-0.dtd"
   xmlns:inkscape="http://www.inkscape.org/namespaces/inkscape"
   version="1.1"
   id="Layer_1"
   x="0px"
   y="0px"
   viewBox="0 0 220 220"
   xml:space="preserve"
   inkscape:version="0.91 r13725"
   sodipodi:docname="logo_icon.svg"
   width="220"
   height="220"
   inkscape:export-filename="/Users/gpena-castellanos/Develop/website-2018/assets/static/favicon/favicon.png"
   inkscape:export-xdpi="13.090909"
   inkscape:export-ydpi="13.090909"><metadata
     id="metadata3810"><rdf:RDF><cc:Work
         rdf:about=""><dc:format>image/svg+xml</dc:format><dc:type
           rdf:resource="http://purl.org/dc/dcmitype/StillImage" /><dc:title /></cc:Work></rdf:RDF></metadata><defs
     id="defs3808"><radialGradient
       gradientUnits="userSpaceOnUse"
       r="10.2828"
       cy="64.204697"
       cx="363.58209"
       id="XMLID_530_"><stop
         id="stop3697"
         style="stop-color:#5DECFF"
         offset="0.4021" /><stop
         id="stop3699"
         style="stop-color:#03E3FF"
         offset="1" /></radialGradient><radialGradient
       gradientUnits="userSpaceOnUse"
       r="6.6336002"
       cy="153.76379"
       cx="212.3847"
       id="XMLID_531_"><stop
         id="stop3703"
         style="stop-color:#5DECFF"
         offset="0.4021" /><stop
         id="stop3705"
         style="stop-color:#03E3FF"
         offset="1" /></radialGradient><radialGradient
       gradientUnits="userSpaceOnUse"
       r="10.2827"
       cy="33.066299"
       cx="260.26379"
       id="XMLID_532_"
       gradientTransform="translate(-173.12224,-1.2345679)"><stop
         id="stop3709"
         style="stop-color:#5DECFF"
         offset="0.4021" /><stop
         id="stop3711"
         style="stop-color:#03E3FF"
         offset="1" /></radialGradient><radialGradient
       gradientUnits="userSpaceOnUse"
       r="6.6345"
       cy="173.125"
       cx="289.4577"
       id="XMLID_533_"><stop
         id="stop3715"
         style="stop-color:#5DECFF"
         offset="0.4021" /><stop
         id="stop3717"
         style="stop-color:#03E3FF"
         offset="1" /></radialGradient><filter
       inkscape:collect="always"
       style="color-interpolation-filters:sRGB"
       id="filter4753"
       x="-0.30094827"
       width="1.6018965"
       y="-0.29905471"
       height="1.5981094"><feGaussianBlur
         inkscape:collect="always"
         stdDeviation="20.112304"
         id="feGaussianBlur4755" /></filter></defs><sodipodi:namedview
     pagecolor="#ffffff"
     bordercolor="#666666"
     borderopacity="1"
     objecttolerance="10"
     gridtolerance="10"
     guidetolerance="10"
     inkscape:pageopacity="0"
     inkscape:pageshadow="2"
     inkscape:window-width="1440"
     inkscape:window-height="803"
     id="namedview3806"
     showgrid="false"
     inkscape:zoom="1"
     inkscape:cx="106.67766"
     inkscape:cy="72.234799"
     inkscape:window-x="0"
     inkscape:window-y="0"
     inkscape:window-maximized="0"
     inkscape:current-layer="Layer_1"
     borderlayer="true" /><style
     type="text/css"
     id="style3687">
	.st0{fill:none;}
	.st1{fill:url(#XMLID_530_);}
	.st2{fill:url(#XMLID_531_);}
	.st3{fill:url(#XMLID_532_);}
	.st4{fill:url(#XMLID_533_);}
	.st5{fill:#03E3FF;}
	.st6{fill:#FFFFFF;}
</style><ellipse
     style="opacity:0.98999999;fill:#382092;fill-opacity:1;stroke:none;stroke-width:9.95090866;stroke-linecap:square;stroke-linejoin:round;stroke-miterlimit:4;stroke-dasharray:none;stroke-opacity:1"
     id="ellipse4862"
     transform="matrix(0.32611916,-0.94532867,0.95412508,0.29940831,0,0)"
     ry="95.853981"
     rx="26.729383"
     cy="-31.931095"
     cx="-395.38132" /><ellipse
     cx="-293.38443"
     cy="269.93417"
     rx="24.104492"
     ry="88.939835"
     transform="matrix(0.92263505,-0.38567416,0.43058205,0.90255144,0,0)"
     id="ellipse4860"
     style="opacity:0.98999999;fill:#382092;fill-opacity:1;stroke:none;stroke-width:9.95090866;stroke-linecap:square;stroke-linejoin:round;stroke-miterlimit:4;stroke-dasharray:none;stroke-opacity:1" /><rect
     style="opacity:1;fill:#382092;fill-opacity:1;stroke:none;stroke-width:5;stroke-linecap:square;stroke-linejoin:round;stroke-miterlimit:4;stroke-dasharray:none;stroke-opacity:1"
     id="rect4433"
     width="220"
     height="220"
     x="0"
     y="0"
     ry="110" /><rect
     id="XMLID_529_"
     x="0"
     class="st0"
     width="485"
     height="220"
     y="0"
     style="fill:none" /><g
     style="fill:#00dbcf;fill-opacity:1;filter:url(#filter4753)"
     transform="matrix(0.87286448,0,0,0.86737229,16.901484,15.359189)"
     id="g4725"><g
       style="opacity:1;fill:#00dbcf;fill-opacity:1;stroke:none"
       id="g4727"
       transform="matrix(4.1552189,0,0,4.2142825,-1057.2182,-377.84823)"><path
         id="path4729"
         class="st6"
         d="m 279.9,96.4 c -9.8,0 -9.1,4.1 -9.1,4.1 l 0,4.3 9.5,0 0,1 -13.2,0 c 0,0 -6.3,-0.5 -6.3,9.3 0,9.8 5.5,9.7 5.5,9.7 l 3,0 0,-4.4 c 0,0 0.1,-5.6 5.7,-5.6 l 9.2,0 c 0,0 5.1,0.3 5.1,-4.8 l 0,-8.4 c 0,-0.1 0.8,-5.2 -9.4,-5.2 l 0,0 0,0 z m -5.1,3 c 0.9,0 1.7,0.7 1.7,1.7 0,0.9 -0.7,1.7 -1.7,1.7 -1,0 -1.7,-0.7 -1.7,-1.7 0.1,-1 0.8,-1.7 1.7,-1.7 l 0,0 0,0 z"
         inkscape:connector-curvature="0"
         style="fill:#00dbcf;fill-opacity:1;stroke:none" /><path
         id="path4731"
         class="st6"
         d="m 280,134.7 c 9.8,0 9.3,-4.4 9.3,-4.4 l 0.1,-4.5 -9.1,0 0,-1 12.8,0 c 0,0 6.3,0.5 6.3,-9.3 0,-9.8 -5.5,-9.7 -5.5,-9.7 l -2.6,0 0,4.9 c 0,0 -0.5,5.1 -6,5.1 l -9.3,0 c 0,0 -5.7,0.2 -5.7,5.4 l 0,8.4 c 0,0 -0.5,5.1 9.7,5.1 l 0,0 0,0 z m 5.4,-2.9 c -0.9,0 -1.7,-0.7 -1.7,-1.7 0,-0.9 0.7,-1.7 1.7,-1.7 1,0 1.7,0.7 1.7,1.7 0,0.9 -0.8,1.7 -1.7,1.7 l 0,0 0,0 z"
         inkscape:connector-curvature="0"
         style="fill:#00dbcf;fill-opacity:1;stroke:none" /></g></g><g
     id="g4435"
     transform="matrix(0.87286448,0,0,0.86737229,16.901484,15.359189)"
     style="fill:#ffffff"><g
       transform="matrix(4.1552189,0,0,4.2142825,-1057.2182,-377.84823)"
       id="XMLID_1435_"
       style="opacity:1;fill:#ffffff;fill-opacity:1;stroke:none"><path
         style="fill:#ffffff;fill-opacity:1;stroke:none"
         inkscape:connector-curvature="0"
         d="m 279.9,96.4 c -9.8,0 -9.1,4.1 -9.1,4.1 l 0,4.3 9.5,0 0,1 -13.2,0 c 0,0 -6.3,-0.5 -6.3,9.3 0,9.8 5.5,9.7 5.5,9.7 l 3,0 0,-4.4 c 0,0 0.1,-5.6 5.7,-5.6 l 9.2,0 c 0,0 5.1,0.3 5.1,-4.8 l 0,-8.4 c 0,-0.1 0.8,-5.2 -9.4,-5.2 l 0,0 0,0 z m -5.1,3 c 0.9,0 1.7,0.7 1.7,1.7 0,0.9 -0.7,1.7 -1.7,1.7 -1,0 -1.7,-0.7 -1.7,-1.7 0.1,-1 0.8,-1.7 1.7,-1.7 l 0,0 0,0 z"
         class="st6"
         id="XMLID_1439_" /><path
         style="fill:#ffffff;fill-opacity:1;stroke:none"
         inkscape:connector-curvature="0"
         d="m 280,134.7 c 9.8,0 9.3,-4.4 9.3,-4.4 l 0.1,-4.5 -9.1,0 0,-1 12.8,0 c 0,0 6.3,0.5 6.3,-9.3 0,-9.8 -5.5,-9.7 -5.5,-9.7 l -2.6,0 0,4.9 c 0,0 -0.5,5.1 -6,5.1 l -9.3,0 c 0,0 -5.7,0.2 -5.7,5.4 l 0,8.4 c 0,0 -0.5,5.1 9.7,5.1 l 0,0 0,0 z m 5.4,-2.9 c -0.9,0 -1.7,-0.7 -1.7,-1.7 0,-0.9 0.7,-1.7 1.7,-1.7 1,0 1.7,0.7 1.7,1.7 0,0.9 -0.8,1.7 -1.7,1.7 l 0,0 0,0 z"
         class="st6"
         id="XMLID_1436_" /></g></g><style
     type="text/css"
     id="style3">
	.st0{fill:none;}
	.st1{fill:url(#XMLID_530_);}
	.st2{fill:url(#XMLID_531_);}
	.st3{fill:url(#XMLID_532_);}
	.st4{fill:url(#XMLID_533_);}
	.st5{fill:#03E3FF;}
	.st6{fill:#FFFFFF;}
</style><g
     id="g4785"
     transform="translate(-252.5,260.5)"><rect
       id="XMLID_529_-1"
       x="0"
       class="st0"
       width="485"
       height="220"
       y="-20"
       style="fill:none" /><g
       id="XMLID_1801_"
       transform="translate(0,-20)"><g
         id="g4260"
         transform="matrix(0.9975594,0,0,0.99128278,-179.098,10.937976)"
         style="fill:#03e3ff;fill-opacity:1"><g
           id="g4262"
           style="fill:#03e3ff;fill-opacity:1"><radialGradient
             gradientUnits="userSpaceOnUse"
             r="10.2828"
             cy="64.204697"
             cx="363.58209"
             id="radialGradient4264"><stop
               id="stop4266"
               style="stop-color:#5DECFF"
               offset="0.4021" /><stop
               id="stop4268"
               style="stop-color:#03E3FF"
               offset="1" /></radialGradient><path
             d="m 371.3,56.5 c 4,3.5 3.8,9.8 -0.4,14 -4.2,4.2 -10.9,4.8 -15,1.3 -4,-3.5 -3.8,-9.8 0.4,-14 4.2,-4.2 10.9,-4.8 15,-1.3 z"
             class="st1"
             id="path4270"
             style="fill:#03e3ff;fill-opacity:1"
             inkscape:connector-curvature="0" /><radialGradient
             gradientUnits="userSpaceOnUse"
             r="6.6336002"
             cy="153.76379"
             cx="212.3847"
             id="radialGradient4272"><stop
               id="stop4274"
               style="stop-color:#5DECFF"
               offset="0.4021" /><stop
               id="stop4276"
               style="stop-color:#03E3FF"
               offset="1" /></radialGradient><path
             d="m 217.3,148.8 c 2.6,2.3 2.5,6.3 -0.3,9.1 -2.7,2.7 -7.1,3.1 -9.7,0.8 -2.6,-2.3 -2.5,-6.3 0.3,-9.1 2.8,-2.7 7.1,-3.1 9.7,-0.8 z"
             class="st2"
             id="path4278"
             style="fill:#03e3ff;fill-opacity:1"
             inkscape:connector-curvature="0" /><radialGradient
             gradientUnits="userSpaceOnUse"
             r="10.2827"
             cy="33.066299"
             cx="260.26379"
             id="radialGradient4280"><stop
               id="stop4282"
               style="stop-color:#5DECFF"
               offset="0.4021" /><stop
               id="stop4284"
               style="stop-color:#03E3FF"
               offset="1" /></radialGradient><path
             d="m 268,25.4 c 4,3.5 3.8,9.8 -0.4,14 -4.2,4.2 -10.9,4.8 -15,1.3 -4,-3.5 -3.8,-9.8 0.4,-14 4.2,-4.2 10.9,-4.8 15,-1.3 z"
             class="st3"
             id="path4286"
             style="fill:#03e3ff;fill-opacity:1"
             inkscape:connector-curvature="0" /><radialGradient
             gradientUnits="userSpaceOnUse"
             r="6.6345"
             cy="173.125"
             cx="289.4577"
             id="radialGradient4288"><stop
               id="stop4290"
               style="stop-color:#5DECFF"
               offset="0.4021" /><stop
               id="stop4292"
               style="stop-color:#03E3FF"
               offset="1" /></radialGradient><path
             d="m 294.4,168.2 c 2.6,2.3 2.5,6.3 -0.3,9.1 -2.7,2.7 -7.1,3.1 -9.7,0.8 -2.6,-2.3 -2.5,-6.3 0.3,-9.1 2.8,-2.7 7.1,-3.1 9.7,-0.8 z"
             class="st4"
             id="path4294"
             style="fill:#03e3ff;fill-opacity:1"
             inkscape:connector-curvature="0" /><g
             id="g4296"
             style="fill:#03e3ff;fill-opacity:1"><path
               d="m 284.3,69.4 c -0.4,-0.8 -0.9,-1.6 -1.3,-2.4 -6.3,5.7 -12.3,11.7 -18.2,17.8 0.7,0.2 1.4,0.4 2.1,0.5 5.6,-5.5 11.4,-10.8 17.4,-15.9 z"
               class="st5"
               id="path4298"
               style="fill:#03e3ff;fill-opacity:1"
               inkscape:connector-curvature="0" /><path
               d="m 248.4,104.8 c -0.2,-0.5 -0.4,-0.9 -0.6,-1.4 -5.9,6.9 -11.5,14 -17,21.1 0.4,0.2 0.8,0.3 1.2,0.5 5.2,-6.9 10.7,-13.6 16.4,-20.2 z"
               class="st5"
               id="path4300"
               style="fill:#03e3ff;fill-opacity:1"
               inkscape:connector-curvature="0" /><path
               d="m 376.4,25.5 c -1.9,-3.8 -5.1,-6.3 -9.3,-7 -10.2,-1.6 -21.4,4 -30.1,8.6 -15.1,8 -29,18.4 -42,29.4 -3.6,3 -7.1,6.1 -10.6,9.3 0.5,0.8 0.9,1.6 1.4,2.4 10.6,-9 21.8,-17.2 33.6,-24.6 8.4,-5.3 17.3,-10.3 26.7,-13.6 5.4,-1.9 12.7,-4.1 18.3,-1.6 3.8,1.7 5.5,5.8 5.6,9.8 0.1,3.1 -0.5,6.1 -1.3,9.1 -0.5,1.8 -1.1,3.6 -1.8,5.3 -0.3,0.7 -1.2,2.1 -1.2,2.8 -0.5,0.6 -0.3,0.9 0.6,0.8 0.5,0.2 1.1,0.4 1.6,0.7 0.3,0.1 5.7,-7 6,-7.7 3,-7.1 6.1,-16.3 2.5,-23.7 z"
               class="st5"
               id="path4302"
               style="fill:#03e3ff;fill-opacity:1"
               inkscape:connector-curvature="0" /><path
               d="m 229.3,126.6 c -3.1,4 -6,8.1 -8.9,12.2 -1.2,1.8 -2.4,3.5 -3.6,5.3 -0.7,1.1 -1.5,2.2 -2.2,3.4 -0.3,0.4 -0.5,0.8 -0.8,1.3 -0.7,1.1 -1.2,1.1 0.3,1.7 0.4,0.2 5.6,-7 6,-7.7 3.6,-6 7.5,-11.7 11.6,-17.3 -0.4,-0.2 -0.8,-0.4 -1.2,-0.5 -0.3,0.5 -0.8,1.1 -1.2,1.6 z"
               class="st5"
               id="path4304"
               style="fill:#03e3ff;fill-opacity:1"
               inkscape:connector-curvature="0" /><path
               d="m 262.7,89 c -0.7,1 -1.5,2 -2.4,2.9 1.1,-1.1 2.1,-2.2 3.2,-3.3 -0.7,-0.1 -1.3,-0.3 -2,-0.4 -3.8,4.1 -7.6,8.2 -11.2,12.4 -0.7,0.8 -1.3,1.5 -2,2.3 0.2,0.5 0.4,0.9 0.5,1.4 3.7,-4.2 7.5,-8.3 11.5,-12.4 0.9,-0.9 1.7,-1.9 2.4,-2.9 z"
               class="st5"
               id="path4306"
               style="fill:#03e3ff;fill-opacity:1"
               inkscape:connector-curvature="0" /><path
               d="m 205.3,196.5 c -5.9,-5.7 -4.1,-18.5 3.8,-35 -0.5,-0.1 -0.9,-0.3 -1.3,-0.5 -9.1,18.1 -11.5,32.2 -5.1,38.3 10.3,9.9 44.2,-10.7 76.6,-38.3 -0.1,-0.2 -0.3,-0.4 -0.4,-0.6 -34,29.8 -63.3,46.1 -73.6,36.1 z"
               class="st5"
               id="path4308"
               style="fill:#03e3ff;fill-opacity:1"
               inkscape:connector-curvature="0" /><path
               d="m 357.7,75.9 c -0.7,-0.3 -1.4,-0.6 -2.1,-1 -7.1,10.6 -16,22.2 -26.4,34.3 0.4,0.2 0.8,0.5 1.3,0.7 11.3,-12.7 20.3,-24 27.2,-34 z"
               class="st5"
               id="path4310"
               style="fill:#03e3ff;fill-opacity:1"
               inkscape:connector-curvature="0" /><path
               d="m 294.9,145.5 c 0.4,0.1 0.8,0.2 1.2,0.3 4.6,-4.4 9.1,-8.8 13.4,-13.2 0.6,-0.6 1.2,-1.3 1.8,-1.9 -0.1,-0.4 -0.3,-0.8 -0.4,-1.2 -0.7,0.8 -1.5,1.6 -2.2,2.3 -4.6,4.7 -9.2,9.3 -13.8,13.7 z"
               class="st5"
               id="path4312"
               style="fill:#03e3ff;fill-opacity:1"
               inkscape:connector-curvature="0" /><path
               d="m 312.7,127.5 c 0.1,0.3 0.2,0.7 0.3,1 0,0.1 0.1,0.2 0.1,0.3 5.8,-6.1 11.2,-11.9 16.1,-17.4 -0.4,-0.2 -0.8,-0.4 -1.3,-0.6 -4.7,5.4 -9.8,11.1 -15.2,16.7 z"
               class="st5"
               id="path4314"
               style="fill:#03e3ff;fill-opacity:1"
               inkscape:connector-curvature="0" /><path
               d="m 279.5,159.8 c 0.1,0.2 0.3,0.4 0.4,0.6 5.2,-4.4 10.3,-9 15.3,-13.7 -0.4,-0.1 -0.8,-0.2 -1.2,-0.3 -4.9,4.7 -9.8,9.2 -14.5,13.4 z"
               class="st5"
               id="path4316"
               style="fill:#03e3ff;fill-opacity:1"
               inkscape:connector-curvature="0" /><path
               d="m 241.3,27.2 c 2.3,-1.1 5,-1 8,0.2 0.3,-0.4 0.6,-0.9 0.9,-1.3 -3.4,-1.1 -6.5,-1 -9.3,0.3 -9.3,4.3 -9.2,25.6 -1.3,53 0.4,0.1 0.8,0.1 1.1,0.2 -6.8,-25.4 -8.2,-48.4 0.6,-52.4 z"
               class="st5"
               id="path4318"
               style="fill:#03e3ff;fill-opacity:1"
               inkscape:connector-curvature="0" /><path
               d="m 284.3,167.4 c 0.3,-0.2 0.5,-0.4 0.8,-0.6 -1.7,-2 -3.4,-4.1 -5.1,-6.4 -0.2,0.2 -0.4,0.4 -0.7,0.6 1.6,2.2 3.3,4.4 5,6.4 z"
               class="st5"
               id="path4320"
               style="fill:#03e3ff;fill-opacity:1"
               inkscape:connector-curvature="0" /><path
               d="m 265.3,138.2 c -0.3,-0.1 -0.6,-0.2 -0.9,-0.3 4.7,8.3 9.6,15.9 14.4,22.4 0.2,-0.2 0.4,-0.4 0.6,-0.6 -4.7,-6.1 -9.4,-13.4 -14.1,-21.5 z"
               class="st5"
               id="path4322"
               style="fill:#03e3ff;fill-opacity:1"
               inkscape:connector-curvature="0" /><path
               d="m 242.3,85.3 c -0.3,0 -0.7,-0.1 -1,-0.1 1.9,5.9 4.1,12 6.6,18.3 0.2,-0.2 0.3,-0.4 0.5,-0.5 -2.3,-5.9 -4.3,-11.8 -6.1,-17.7 z"
               class="st5"
               id="path4324"
               style="fill:#03e3ff;fill-opacity:1"
               inkscape:connector-curvature="0" /><path
               d="m 248.9,104.3 c -0.2,-0.5 -0.4,-0.9 -0.5,-1.4 -0.2,0.2 -0.3,0.4 -0.5,0.5 0.2,0.5 0.4,0.9 0.6,1.4 0.1,-0.1 0.2,-0.3 0.4,-0.5 z"
               class="st5"
               id="path4326"
               style="fill:#03e3ff;fill-opacity:1"
               inkscape:connector-curvature="0" /><path
               d="m 278.8,160.4 c 0.1,0.2 0.3,0.4 0.4,0.6 0.2,-0.2 0.4,-0.4 0.7,-0.6 -0.1,-0.2 -0.3,-0.4 -0.4,-0.6 -0.2,0.2 -0.5,0.4 -0.7,0.6 z"
               class="st5"
               id="path4328"
               style="fill:#03e3ff;fill-opacity:1"
               inkscape:connector-curvature="0" /><path
               d="m 317.3,154.5 c 1.1,7 2.4,15.7 -0.8,22.4 -1.4,2.9 -3.8,5 -7,5.3 -2.6,0.3 -5.2,-0.6 -7.6,-1.7 -1.6,-0.8 -3.1,-1.7 -4.5,-2.7 -0.7,-0.5 -1.6,-1.4 -2.4,-1.8 -1.2,-0.5 -0.7,-0.9 -1.9,0.1 -0.1,0.1 3.2,4.4 3.5,4.7 4.9,4.3 14.3,12 21.2,7.3 3.6,-2.5 4.3,-7.8 4.5,-11.8 0.5,-8.1 -0.6,-16.4 -2.5,-24.5 -1,-0.2 -2.1,-0.4 -3.2,-0.5 0.3,1.1 0.5,2.2 0.7,3.2 z"
               class="st5"
               id="path4330"
               style="fill:#03e3ff;fill-opacity:1"
               inkscape:connector-curvature="0" /><path
               d="m 289.7,79.5 c 2.6,5.1 5.1,10.2 7.5,15.4 0.9,0.3 1.9,0.7 2.8,1.1 -4.4,-9.4 -9.1,-18.7 -14.2,-27.8 -0.5,0.4 -1,0.8 -1.4,1.2 1.8,3.4 3.6,6.7 5.3,10.1 z"
               class="st5"
               id="path4332"
               style="fill:#03e3ff;fill-opacity:1"
               inkscape:connector-curvature="0" /><path
               d="m 316.4,149.8 c 1,0.2 2.1,0.3 3.1,0.5 -1.8,-7.4 -4.1,-14.6 -6.4,-21.5 -0.6,0.6 -1.2,1.3 -1.8,1.9 2.1,6.3 3.8,12.6 5.1,19.1 z"
               class="st5"
               id="path4334"
               style="fill:#03e3ff;fill-opacity:1"
               inkscape:connector-curvature="0" /><path
               d="m 273.1,48 c -0.2,-0.3 -0.4,-0.6 -0.6,-0.9 -0.2,-0.2 -0.3,-0.5 -0.5,-0.7 -0.6,-0.8 -1.2,-1.6 -1.7,-2.4 -1,-1.4 -2.1,-2.8 -3.2,-4.2 -0.1,-0.1 -0.2,-0.2 -0.3,-0.3 -0.5,0.4 -1,0.8 -1.5,1.1 0,0 3.2,4.2 3.5,4.6 1.5,1.9 3,3.8 4.4,5.8 0.3,0.5 0.7,1 1,1.5 3.2,4.7 6.1,9.5 8.9,14.5 0.5,-0.4 0.9,-0.8 1.4,-1.2 -3.6,-6.1 -7.4,-12.1 -11.4,-17.8 z"
               class="st5"
               id="path4336"
               style="fill:#03e3ff;fill-opacity:1"
               inkscape:connector-curvature="0" /><path
               d="m 283,67 c 0.4,0.8 0.9,1.6 1.3,2.4 0.5,-0.4 1,-0.8 1.4,-1.2 -0.5,-0.8 -0.9,-1.6 -1.4,-2.4 -0.4,0.4 -0.8,0.8 -1.3,1.2 z"
               class="st5"
               id="path4338"
               style="fill:#03e3ff;fill-opacity:1"
               inkscape:connector-curvature="0" /><path
               d="m 312.7,127.5 c -0.6,0.6 -1.2,1.3 -1.8,1.9 0.1,0.4 0.3,0.8 0.4,1.2 0.6,-0.6 1.2,-1.3 1.8,-1.9 0,-0.1 -0.1,-0.2 -0.1,-0.3 -0.1,-0.2 -0.2,-0.5 -0.3,-0.9 z"
               class="st5"
               id="path4340"
               style="fill:#03e3ff;fill-opacity:1"
               inkscape:connector-curvature="0" /><path
               d="m 239.6,79.5 c -6.6,-1.1 -13.2,-1.8 -19.9,-2.3 -9.7,-0.6 -20.6,-0.9 -29.8,2.6 -3,1.2 -6.3,3 -7.7,6 -2.7,5.9 3.5,11.7 7.7,15.3 0.1,-0.7 0.4,-1.4 0.9,-1.9 1.1,-1.1 2.6,-1.1 3.9,-0.5 -0.9,-1.7 -1.7,-3.6 -1.3,-5.3 1.6,-4.8 7.5,-6.8 11.9,-7.9 8,-2 17.5,-1.7 25.7,-1.3 3.4,0.2 6.8,0.5 10.2,0.8 -0.5,-1.8 -1.1,-3.6 -1.6,-5.5 z"
               class="st5"
               id="path4342"
               style="fill:#03e3ff;fill-opacity:1"
               inkscape:connector-curvature="0" /><path
               d="m 301.7,99.6 c 0.4,0.2 0.9,0.3 1.3,0.5 6.6,2.4 13,5.1 19.4,8 1.9,0.9 3.7,1.8 5.6,2.7 0.4,-0.5 0.8,-1 1.2,-1.4 -6,-3.3 -12.2,-6.3 -18.6,-9 -3.5,-1.5 -7.1,-2.9 -10.6,-4.3 0.3,0.6 0.6,1.3 0.9,2 0.3,0.4 0.5,0.9 0.8,1.5 z"
               class="st5"
               id="path4344"
               style="fill:#03e3ff;fill-opacity:1"
               inkscape:connector-curvature="0" /><path
               d="m 332.6,113 c 1.5,0.8 3,1.6 4.5,2.4 0.6,0.4 1.3,0.7 1.9,1.1 0.2,0.1 0.3,0.2 0.5,0.3 2.7,1.6 12.6,7.7 12.7,7.6 0.2,-0.4 0.5,-0.8 0.7,-1.1 -0.2,-0.2 -5.3,-3.2 -5.5,-3.4 -5.6,-3.4 -11.2,-6.8 -16.9,-9.9 -0.4,0.5 -0.8,0.9 -1.2,1.4 1,0.5 2.2,1.1 3.3,1.6 z"
               class="st5"
               id="path4346"
               style="fill:#03e3ff;fill-opacity:1"
               inkscape:connector-curvature="0" /><path
               d="m 261.5,88.3 c 1.1,-1.2 2.2,-2.3 3.3,-3.4 -0.4,-0.1 -0.7,-0.2 -1.1,-0.3 -7.6,-1.9 -15.2,-3.6 -23,-4.9 0.5,1.9 1,3.7 1.6,5.6 6.4,0.7 12.8,1.7 19.2,3 z"
               class="st5"
               id="path4348"
               style="fill:#03e3ff;fill-opacity:1"
               inkscape:connector-curvature="0" /><path
               d="m 263.5,88.7 c 1.1,-1.1 2.2,-2.2 3.3,-3.3 -0.7,-0.2 -1.4,-0.4 -2.1,-0.5 -1.1,1.1 -2.2,2.3 -3.3,3.4 0.8,0.1 1.5,0.2 2.1,0.4 z"
               class="st5"
               id="path4350"
               style="fill:#03e3ff;fill-opacity:1"
               inkscape:connector-curvature="0" /><path
               d="m 329.2,111.3 c 0.4,-0.5 0.8,-0.9 1.2,-1.4 -0.4,-0.2 -0.8,-0.5 -1.3,-0.7 -0.4,0.5 -0.8,1 -1.2,1.4 0.5,0.3 0.9,0.5 1.3,0.7 z"
               class="st5"
               id="path4352"
               style="fill:#03e3ff;fill-opacity:1"
               inkscape:connector-curvature="0" /><path
               d="m 240.7,79.7 c -0.4,-0.1 -0.8,-0.1 -1.1,-0.2 0.5,1.9 1.1,3.8 1.7,5.7 0.3,0 0.7,0.1 1,0.1 -0.5,-1.9 -1.1,-3.8 -1.6,-5.6 z"
               class="st5"
               id="path4354"
               style="fill:#03e3ff;fill-opacity:1"
               inkscape:connector-curvature="0" /><path
               d="m 298.8,98.6 c 0.9,0.3 1.9,0.7 2.8,1 -0.3,-0.6 -0.5,-1.1 -0.8,-1.7 -0.3,-0.7 -0.6,-1.3 -0.9,-2 -0.9,-0.4 -1.9,-0.7 -2.8,-1.1 0.6,1.3 1.2,2.5 1.7,3.8 z"
               class="st5"
               id="path4356"
               style="fill:#03e3ff;fill-opacity:1"
               inkscape:connector-curvature="0" /><g
               id="g4358"
               style="fill:#03e3ff;fill-opacity:1"><path
                 d="m 365,143.8 c 1.5,-4.9 -2.1,-10.9 -9.4,-17.4 -0.3,0.3 -0.7,0.6 -1,0.9 7.1,6.1 11,11.8 9.6,16.3 -2.6,8.6 -20.1,10.3 -44.7,6.7 0.1,0.6 0.3,1.1 0.4,1.7 28,4.5 42.3,1.2 45.1,-8.2 z"
                 class="st5"
                 id="path4360"
                 style="fill:#03e3ff;fill-opacity:1"
                 inkscape:connector-curvature="0" /></g><g
               id="g4362"
               style="fill:#03e3ff;fill-opacity:1"><path
                 d="m 204.7,111.5 c -0.1,0.1 -0.1,0.1 -0.1,0.2 4.1,2.6 21,11 26,13.3 0.1,-0.1 0.2,-0.2 0.2,-0.3 -5.1,-2.3 -21.9,-10.8 -26.1,-13.2 z"
                 class="st5"
                 id="path4364"
                 style="fill:#03e3ff;fill-opacity:1"
                 inkscape:connector-curvature="0" /></g><g
               id="g4366"
               style="fill:#03e3ff;fill-opacity:1"><path
                 d="m 232,125.1 c -0.1,0.1 -0.2,0.2 -0.2,0.3 10.4,4.6 21.7,8.9 32.7,12.5 -0.2,-0.4 -0.4,-0.7 -0.6,-1.1 -11.6,-3.6 -22.3,-7.6 -31.9,-11.7 z"
                 class="st5"
                 id="path4368"
                 style="fill:#03e3ff;fill-opacity:1"
                 inkscape:connector-curvature="0" /></g><g
               id="g4370"
               style="fill:#03e3ff;fill-opacity:1"><path
                 d="m 296.1,145.8 c -0.3,0.3 -0.6,0.6 -1,0.9 7.9,2 15.1,3.5 21.6,4.7 -0.1,-0.5 -0.2,-1.1 -0.3,-1.6 -6.3,-1 -13.1,-2.4 -20.3,-4 z"
                 class="st5"
                 id="path4372"
                 style="fill:#03e3ff;fill-opacity:1"
                 inkscape:connector-curvature="0" /></g><g
               id="g4374"
               style="fill:#03e3ff;fill-opacity:1"><path
                 d="m 230.8,124.6 c -0.1,0.1 -0.2,0.2 -0.2,0.3 0.4,0.2 0.8,0.4 1.2,0.5 0.1,-0.1 0.2,-0.2 0.2,-0.3 -0.4,-0.1 -0.8,-0.3 -1.2,-0.5 z"
                 class="st5"
                 id="path4376"
                 style="fill:#03e3ff;fill-opacity:1"
                 inkscape:connector-curvature="0" /></g><g
               id="g4378"
               style="fill:#03e3ff;fill-opacity:1"><path
                 d="m 294.9,145.5 c -0.3,0.3 -0.6,0.6 -0.9,0.9 0.4,0.1 0.8,0.2 1.2,0.3 0.3,-0.3 0.6,-0.6 1,-0.9 -0.5,-0.1 -0.9,-0.2 -1.3,-0.3 z"
                 class="st5"
                 id="path4380"
                 style="fill:#03e3ff;fill-opacity:1"
                 inkscape:connector-curvature="0" /></g><g
               id="g4382"
               style="fill:#03e3ff;fill-opacity:1"><path
                 d="m 264.7,137.1 c -0.3,-0.1 -0.6,-0.2 -0.9,-0.3 0.2,0.4 0.4,0.7 0.6,1.1 0.3,0.1 0.6,0.2 0.9,0.3 -0.2,-0.3 -0.4,-0.7 -0.6,-1.1 z"
                 class="st5"
                 id="path4384"
                 style="fill:#03e3ff;fill-opacity:1"
                 inkscape:connector-curvature="0" /></g><g
               id="g4386"
               style="fill:#03e3ff;fill-opacity:1"><path
                 d="m 316.8,151.4 c 1.1,0.2 2.1,0.4 3.2,0.5 -0.1,-0.6 -0.3,-1.1 -0.4,-1.7 -1,-0.1 -2,-0.3 -3.1,-0.5 0.1,0.6 0.2,1.2 0.3,1.7 z"
                 class="st5"
                 id="path4388"
                 style="fill:#03e3ff;fill-opacity:1"
                 inkscape:connector-curvature="0" /></g></g><path
             style="fill:#03e3ff;fill-opacity:1"
             id="path4542"
             class="st3"
             d="m 290.02026,101.57711 c 5.67156,4.96261 5.38798,13.8953 -0.56715,19.85043 -5.95513,5.95513 -15.45498,6.80586 -21.26832,1.84326 -5.67155,-4.96261 -5.38798,-13.89531 0.56715,-19.85044 5.95513,-5.955125 15.45498,-6.805858 21.26832,-1.84325 z"
             inkscape:connector-curvature="0" /><path
             style="fill:#03e3ff;fill-opacity:1"
             id="path4546"
             class="st1"
             d="m 206.51102,113.81755 c -2.32447,4.77984 -8.45518,6.24419 -13.61212,3.29699 -5.15694,-2.9472 -7.49834,-9.25337 -5.20018,-14.12969 2.32446,-4.779838 8.45518,-6.244189 13.61212,-3.29699 5.15694,2.9472 7.49834,9.25337 5.20018,14.12969 z"
             inkscape:connector-curvature="0" /></g></g></g></g><ellipse
     cx="-322.12219"
     cy="243.26132"
     rx="35.753788"
     ry="136.82713"
     transform="matrix(0.3919602,-0.91998218,0.94505416,0.32691381,0,0)"
     id="ellipse4858"
     style="opacity:0.98999999;fill:none;fill-opacity:1;stroke:#000000;stroke-width:9.95090866;stroke-linecap:square;stroke-linejoin:round;stroke-miterlimit:4;stroke-dasharray:none;stroke-opacity:1" /></svg>