<?xml version="1.0" encoding="utf-8"?>
<!-- Generator: Adobe Illustrator 19.0.0, SVG Export Plug-In . SVG Version: 6.00 Build 0)  -->
<svg version="1.1" id="Layer_1" xmlns="http://www.w3.org/2000/svg" xmlns:xlink="http://www.w3.org/1999/xlink" x="0px" y="0px"
	 viewBox="0 0 969.3 625.5" style="enable-background:new 0 0 969.3 625.5;" xml:space="preserve">
<style type="text/css">
	.st0{fill:none;stroke:#3C36DD;stroke-width:1.5;stroke-linecap:round;stroke-linejoin:round;stroke-miterlimit:10;}
	.st1{fill:none;stroke:#FFFFFF;stroke-width:1.5;stroke-linecap:round;stroke-linejoin:round;stroke-miterlimit:10;}
</style>
<g id="XMLID_90_">
	<g id="XMLID_2089_">
		<line id="XMLID_2091_" class="st0" x1="854.7" y1="120.3" x2="854.7" y2="139.4"/>
		<line id="XMLID_2090_" class="st0" x1="845.1" y1="129.8" x2="864.3" y2="129.8"/>
	</g>
	<g id="XMLID_2086_">
		<line id="XMLID_2088_" class="st0" x1="360.9" y1="605.6" x2="360.9" y2="624.7"/>
		<line id="XMLID_2087_" class="st0" x1="351.3" y1="615.1" x2="370.5" y2="615.1"/>
	</g>
	<g id="XMLID_2083_">
		<line id="XMLID_2085_" class="st0" x1="682.2" y1="0.8" x2="682.2" y2="19.9"/>
		<line id="XMLID_2084_" class="st0" x1="672.7" y1="10.3" x2="691.8" y2="10.3"/>
	</g>
	<g id="XMLID_2080_">
		<line id="XMLID_2082_" class="st0" x1="93.3" y1="108.3" x2="93.3" y2="127.5"/>
		<line id="XMLID_2081_" class="st0" x1="83.7" y1="117.9" x2="102.9" y2="117.9"/>
	</g>
	<g id="XMLID_2077_">
		<line id="XMLID_2079_" class="st0" x1="833.5" y1="124.8" x2="833.5" y2="134.9"/>
		<line id="XMLID_2078_" class="st0" x1="828.4" y1="129.8" x2="838.5" y2="129.8"/>
	</g>
	<g id="XMLID_2074_">
		<line id="XMLID_2076_" class="st0" x1="23.5" y1="378.1" x2="23.5" y2="388.3"/>
		<line id="XMLID_2075_" class="st0" x1="18.4" y1="383.2" x2="28.6" y2="383.2"/>
	</g>
	<g id="XMLID_2071_">
		<line id="XMLID_2073_" class="st0" x1="454.7" y1="48.8" x2="454.7" y2="58.9"/>
		<line id="XMLID_2072_" class="st0" x1="449.7" y1="53.9" x2="459.8" y2="53.9"/>
	</g>
	<g id="XMLID_2068_">
		<line id="XMLID_2070_" class="st0" x1="762.2" y1="416.2" x2="762.2" y2="426.3"/>
		<line id="XMLID_2069_" class="st0" x1="757.1" y1="421.3" x2="767.2" y2="421.3"/>
	</g>
	<g id="XMLID_2065_">
		<line id="XMLID_2067_" class="st0" x1="963.5" y1="164.5" x2="963.5" y2="174.7"/>
		<line id="XMLID_2066_" class="st0" x1="958.4" y1="169.6" x2="968.6" y2="169.6"/>
	</g>
	<g id="XMLID_2062_">
		<line id="XMLID_2064_" class="st1" x1="854.7" y1="151.7" x2="854.7" y2="170.9"/>
		<line id="XMLID_2063_" class="st1" x1="845.1" y1="161.3" x2="864.3" y2="161.3"/>
	</g>
	<g id="XMLID_2059_">
		<line id="XMLID_2061_" class="st1" x1="174.9" y1="283.8" x2="174.9" y2="302.9"/>
		<line id="XMLID_2060_" class="st1" x1="165.3" y1="293.3" x2="184.4" y2="293.3"/>
	</g>
	<g id="XMLID_2056_">
		<line id="XMLID_2058_" class="st1" x1="865.9" y1="396.7" x2="865.9" y2="415.8"/>
		<line id="XMLID_2057_" class="st1" x1="856.3" y1="406.3" x2="875.5" y2="406.3"/>
	</g>
	<g id="XMLID_2053_">
		<line id="XMLID_2055_" class="st1" x1="219.8" y1="113.2" x2="219.8" y2="123.4"/>
		<line id="XMLID_2054_" class="st1" x1="214.7" y1="118.3" x2="224.8" y2="118.3"/>
	</g>
	<g id="XMLID_2050_">
		<line id="XMLID_2052_" class="st1" x1="198" y1="394.8" x2="198" y2="404.9"/>
		<line id="XMLID_2051_" class="st1" x1="192.9" y1="399.9" x2="203.1" y2="399.9"/>
	</g>
	<g id="XMLID_2047_">
		<line id="XMLID_2049_" class="st1" x1="813.2" y1="522.3" x2="813.2" y2="532.5"/>
		<line id="XMLID_2048_" class="st1" x1="808.2" y1="527.4" x2="818.3" y2="527.4"/>
	</g>
	<g id="XMLID_2044_">
		<line id="XMLID_2046_" class="st1" x1="820.7" y1="314.2" x2="820.7" y2="324.3"/>
		<line id="XMLID_2045_" class="st1" x1="815.6" y1="319.2" x2="825.7" y2="319.2"/>
	</g>
	<g id="XMLID_2041_">
		<line id="XMLID_2043_" class="st1" x1="505.1" y1="451.6" x2="505.1" y2="461.7"/>
		<line id="XMLID_2042_" class="st1" x1="500" y1="456.6" x2="510.1" y2="456.6"/>
	</g>
	<g id="XMLID_2038_">
		<line id="XMLID_2040_" class="st1" x1="5.8" y1="165.9" x2="5.8" y2="176"/>
		<line id="XMLID_2039_" class="st1" x1="0.7" y1="171" x2="10.9" y2="171"/>
	</g>
</g>
</svg>
