<?xml version="1.0" encoding="utf-8"?>
<!-- Generator: Adobe Illustrator 19.0.0, SVG Export Plug-In . SVG Version: 6.00 Build 0)  -->
<svg version="1.1" id="Layer_1" xmlns="http://www.w3.org/2000/svg" xmlns:xlink="http://www.w3.org/1999/xlink" x="0px" y="0px"
	 viewBox="6 -79 971 672" style="enable-background:new 6 -79 971 672;" xml:space="preserve">
<style type="text/css">
	.st0{fill:none;stroke:#3C36DD;stroke-width:1.5;stroke-linecap:round;stroke-linejoin:round;stroke-miterlimit:10;}
	.st1{fill:none;}
</style>
<line id="XMLID_2091_" class="st0" x1="861.5" y1="87.5" x2="861.5" y2="106.7"/>
<line id="XMLID_2090_" class="st0" x1="852" y1="97.1" x2="871.1" y2="97.1"/>
<line id="XMLID_2088_" class="st0" x1="367.7" y1="572.8" x2="367.7" y2="592"/>
<line id="XMLID_2087_" class="st0" x1="358.2" y1="582.4" x2="377.3" y2="582.4"/>
<line id="XMLID_2085_" class="st0" x1="689.1" y1="-32" x2="689.1" y2="-12.8"/>
<line id="XMLID_2084_" class="st0" x1="679.5" y1="-22.4" x2="698.6" y2="-22.4"/>
<line id="XMLID_2082_" class="st0" x1="100.1" y1="75.6" x2="100.1" y2="94.8"/>
<line id="XMLID_2081_" class="st0" x1="90.6" y1="85.2" x2="109.7" y2="85.2"/>
<line id="XMLID_2079_" class="st0" x1="840.3" y1="92" x2="840.3" y2="102.2"/>
<line id="XMLID_2078_" class="st0" x1="835.2" y1="97.1" x2="845.4" y2="97.1"/>
<line id="XMLID_2076_" class="st0" x1="30.3" y1="345.4" x2="30.3" y2="355.5"/>
<line id="XMLID_2075_" class="st0" x1="25.3" y1="350.4" x2="35.4" y2="350.4"/>
<line id="XMLID_2073_" class="st0" x1="461.6" y1="16" x2="461.6" y2="26.2"/>
<line id="XMLID_2072_" class="st0" x1="456.5" y1="21.1" x2="466.6" y2="21.1"/>
<line id="XMLID_2070_" class="st0" x1="769" y1="383.5" x2="769" y2="393.6"/>
<line id="XMLID_2069_" class="st0" x1="763.9" y1="388.5" x2="774.1" y2="388.5"/>
<line id="XMLID_2067_" class="st0" x1="970.3" y1="131.8" x2="970.3" y2="141.9"/>
<line id="XMLID_2066_" class="st0" x1="965.3" y1="136.9" x2="975.4" y2="136.9"/>
<rect id="XMLID_93_" x="6" y="-79" class="st1" width="971" height="672"/>
</svg>
