<?xml version="1.0" encoding="utf-8"?>
<!-- Generator: Adobe Illustrator 19.0.0, SVG Export Plug-In . SVG Version: 6.00 Build 0)  -->
<svg version="1.1" id="Layer_1" xmlns="http://www.w3.org/2000/svg" xmlns:xlink="http://www.w3.org/1999/xlink" x="0px" y="0px"
	 viewBox="5 -79 971 672" style="enable-background:new 5 -79 971 672;" xml:space="preserve">
<style type="text/css">
	.st0{fill:none;stroke:#FFFFFF;stroke-width:1.5;stroke-linecap:round;stroke-linejoin:round;stroke-miterlimit:10;}
	.st1{fill:none;}
</style>
<g id="XMLID_90_">
	<g id="XMLID_2062_">
		<line id="XMLID_2064_" class="st0" x1="860" y1="117.7" x2="860" y2="136.9"/>
		<line id="XMLID_2063_" class="st0" x1="850.4" y1="127.3" x2="869.6" y2="127.3"/>
	</g>
	<g id="XMLID_2059_">
		<line id="XMLID_2061_" class="st0" x1="180.2" y1="249.8" x2="180.2" y2="268.9"/>
		<line id="XMLID_2060_" class="st0" x1="170.6" y1="259.3" x2="189.7" y2="259.3"/>
	</g>
	<g id="XMLID_2056_">
		<line id="XMLID_2058_" class="st0" x1="871.2" y1="362.7" x2="871.2" y2="381.8"/>
		<line id="XMLID_2057_" class="st0" x1="861.6" y1="372.3" x2="880.8" y2="372.3"/>
	</g>
	<g id="XMLID_2053_">
		<line id="XMLID_2055_" class="st0" x1="225.1" y1="79.2" x2="225.1" y2="89.4"/>
		<line id="XMLID_2054_" class="st0" x1="220" y1="84.3" x2="230.1" y2="84.3"/>
	</g>
	<g id="XMLID_2050_">
		<line id="XMLID_2052_" class="st0" x1="203.3" y1="360.8" x2="203.3" y2="370.9"/>
		<line id="XMLID_2051_" class="st0" x1="198.2" y1="365.9" x2="208.4" y2="365.9"/>
	</g>
	<g id="XMLID_2047_">
		<line id="XMLID_2049_" class="st0" x1="818.5" y1="488.3" x2="818.5" y2="498.5"/>
		<line id="XMLID_2048_" class="st0" x1="813.5" y1="493.4" x2="823.6" y2="493.4"/>
	</g>
	<g id="XMLID_2044_">
		<line id="XMLID_2046_" class="st0" x1="826" y1="280.2" x2="826" y2="290.3"/>
		<line id="XMLID_2045_" class="st0" x1="820.9" y1="285.2" x2="831" y2="285.2"/>
	</g>
	<g id="XMLID_2041_">
		<line id="XMLID_2043_" class="st0" x1="510.4" y1="417.6" x2="510.4" y2="427.7"/>
		<line id="XMLID_2042_" class="st0" x1="505.3" y1="422.6" x2="515.4" y2="422.6"/>
	</g>
	<g id="XMLID_2038_">
		<line id="XMLID_2040_" class="st0" x1="11.1" y1="131.9" x2="11.1" y2="142"/>
		<line id="XMLID_2039_" class="st0" x1="6" y1="137" x2="16.2" y2="137"/>
	</g>
</g>
<rect id="XMLID_93_" x="5" y="-79" class="st1" width="971" height="672"/>
</svg>
