<?xml version="1.0" encoding="UTF-8" standalone="no"?>
<!-- Generator: Adobe Illustrator 19.0.0, SVG Export Plug-In . SVG Version: 6.00 Build 0)  -->

<svg
   xmlns:dc="http://purl.org/dc/elements/1.1/"
   xmlns:cc="http://creativecommons.org/ns#"
   xmlns:rdf="http://www.w3.org/1999/02/22-rdf-syntax-ns#"
   xmlns:svg="http://www.w3.org/2000/svg"
   xmlns="http://www.w3.org/2000/svg"
   xmlns:sodipodi="http://sodipodi.sourceforge.net/DTD/sodipodi-0.dtd"
   xmlns:inkscape="http://www.inkscape.org/namespaces/inkscape"
   version="1.1"
   id="Layer_1"
   x="0px"
   y="0px"
   viewBox="0 0 84 84"
   style="enable-background:new 0 0 84 84;"
   xml:space="preserve"
   inkscape:version="0.91 r13725"
   sodipodi:docname="social-github.svg"><metadata
     id="metadata10"><rdf:RDF><cc:Work
         rdf:about=""><dc:format>image/svg+xml</dc:format><dc:type
           rdf:resource="http://purl.org/dc/dcmitype/StillImage" /><dc:title></dc:title></cc:Work></rdf:RDF></metadata><defs
     id="defs8" /><sodipodi:namedview
     pagecolor="#ffffff"
     bordercolor="#666666"
     borderopacity="1"
     objecttolerance="10"
     gridtolerance="10"
     guidetolerance="10"
     inkscape:pageopacity="0"
     inkscape:pageshadow="2"
     inkscape:window-width="1440"
     inkscape:window-height="785"
     id="namedview6"
     showgrid="false"
     inkscape:zoom="1.9866333"
     inkscape:cx="109.09145"
     inkscape:cy="104.86465"
     inkscape:window-x="0"
     inkscape:window-y="1"
     inkscape:window-maximized="1"
     inkscape:current-layer="Layer_1" /><style
     type="text/css"
     id="style3">
	.st0{fill:#FFFFFF;}
</style><path
     style="opacity:0.98999999;fill:#ffffff;fill-opacity:1;stroke:none;stroke-width:3.60749102;stroke-linecap:square;stroke-linejoin:round;stroke-miterlimit:4;stroke-dasharray:none;stroke-opacity:1"
     d="M 42 0 A 42 42 0 0 0 0 42 A 42 42 0 0 0 42 84 A 42 42 0 0 0 84 42 A 42 42 0 0 0 42 0 z M 58.332031 17.408203 L 58.582031 18.294922 C 59.131861 20.244369 59.247557 21.096127 59.279297 23.466797 L 59.3125 25.9375 L 60.232422 27.3125 C 61.312522 28.927117 62.018034 30.546671 62.521484 32.558594 C 62.822524 33.761658 62.886988 34.486334 62.892578 36.808594 C 62.897578 38.609816 62.818245 39.975488 62.671875 40.634766 C 62.546785 41.198484 62.454387 41.716652 62.466797 41.787109 C 62.479297 41.857539 63.767848 41.892967 65.330078 41.867188 C 68.383128 41.816727 71.644526 42.029289 71.910156 42.294922 C 72.000156 42.384902 72.027563 42.604055 71.970703 42.783203 C 71.870253 43.099709 71.743483 43.106604 67.533203 43.023438 C 63.279203 42.939428 61.992187 43.009143 61.992188 43.322266 C 61.992188 43.412976 62.791156 43.480469 63.878906 43.480469 C 65.803606 43.480469 68.830937 43.809329 70.310547 44.179688 C 71.024267 44.35834 71.134766 44.440009 71.134766 44.796875 C 71.134766 45.16002 71.067014 45.208069 70.558594 45.197266 C 70.241504 45.190966 69.147373 45.061699 68.126953 44.910156 C 67.106553 44.758613 65.210483 44.586251 63.914062 44.527344 C 61.295192 44.408344 61.513562 44.333465 60.669922 45.640625 C 59.502252 47.44987 57.694258 49.008475 55.486328 50.111328 C 54.241028 50.73335 51.777659 51.564079 50.255859 51.875 C 49.734929 51.981435 49.308594 52.101759 49.308594 52.142578 C 49.308594 52.183408 49.497826 52.502952 49.728516 52.851562 C 49.959216 53.200172 50.309742 53.883625 50.507812 54.371094 C 50.852002 55.218155 50.869923 55.523427 50.914062 61.269531 C 50.939462 64.576318 50.997609 67.448207 51.042969 67.650391 C 51.088369 67.852565 51.354676 68.278666 51.634766 68.597656 C 52.426656 69.499585 52.216566 69.742819 50.759766 69.607422 C 49.208816 69.463272 47.769018 68.822962 47.236328 68.039062 L 46.837891 67.453125 L 46.835938 62.671875 C 46.833937 59.791924 46.768322 57.795356 46.669922 57.646484 C 46.560672 57.48126 46.520508 59.25599 46.548828 63.003906 C 46.590628 68.535764 46.595168 68.615284 46.960938 69.080078 C 47.559607 69.840745 47.459596 70.001043 46.384766 70 C 44.565086 69.9982 43.372849 69.40306 42.761719 68.193359 C 42.401279 67.479878 42.390625 67.320771 42.390625 62.388672 C 42.390625 59.252255 42.330422 57.316406 42.232422 57.316406 C 42.135122 57.316406 42.054561 59.442481 42.025391 62.826172 L 41.978516 68.333984 L 41.40625 68.925781 C 40.71676 69.636904 39.617996 70 38.160156 70 C 36.961636 70 36.875794 69.855205 37.490234 68.867188 C 37.851944 68.285552 37.861816 68.139895 37.910156 62.875 C 37.944056 59.183553 37.904649 57.480469 37.787109 57.480469 C 37.670209 57.480469 37.613911 59.017794 37.613281 62.216797 C 37.612721 64.944214 37.540589 67.210265 37.443359 67.560547 C 37.232579 68.319432 36.076124 69.37186 35.146484 69.650391 C 34.163154 69.945004 32.956285 70.040935 32.671875 69.847656 C 32.468715 69.709596 32.463516 69.627589 32.634766 69.386719 C 33.538896 68.115017 33.495434 68.36057 33.496094 64.464844 L 33.496094 60.824219 L 31.230469 60.728516 C 28.631883 60.618061 27.563279 60.352155 26.267578 59.492188 C 25.205543 58.787307 24.262094 57.623514 23.191406 55.697266 C 22.013105 53.577477 21.248783 52.497103 20.386719 51.738281 C 19.961665 51.364136 19.548553 51.056641 19.470703 51.056641 C 19.392903 51.056641 19.330078 50.900734 19.330078 50.708984 C 19.330078 50.383861 19.399482 50.364167 20.367188 50.425781 C 21.858459 50.520741 22.889837 51.098064 25.140625 53.097656 C 26.207085 54.045098 27.398105 54.973795 27.787109 55.162109 C 28.790156 55.647681 30.108776 55.853759 31.857422 55.798828 L 33.369141 55.751953 L 33.65625 54.820312 C 33.94945 53.871378 34.381095 53.135257 35.109375 52.341797 L 35.517578 51.898438 L 35.125 51.820312 C 28.976336 50.594303 25.811334 48.945406 23.365234 45.695312 L 22.404297 44.419922 L 19.943359 44.525391 C 18.590013 44.583951 16.694758 44.755985 15.730469 44.908203 C 13.223439 45.303963 12.836309 45.296355 12.771484 44.839844 C 12.733074 44.569417 12.83101 44.426039 13.134766 44.310547 C 14.07969 43.951288 16.611027 43.621313 19.125 43.529297 C 20.597195 43.475417 21.800781 43.374684 21.800781 43.304688 C 21.800781 43.017387 20.518518 42.946449 16.369141 43.005859 L 12 43.068359 L 12 42.667969 C 12 42.050544 12.566789 41.970521 17.146484 41.941406 C 19.433907 41.926926 21.306497 41.85096 21.306641 41.773438 C 21.306777 41.695907 21.196981 41.208467 21.0625 40.689453 C 20.677904 39.205251 20.491792 36.402619 20.660156 34.623047 C 20.933002 31.739138 21.769711 29.49622 23.361328 27.378906 L 24.134766 26.349609 L 23.955078 25.517578 C 23.556621 23.659645 23.853514 18.872954 24.433594 17.789062 C 24.969805 16.787139 29.964079 18.1045 33.212891 20.103516 L 34.037109 20.609375 L 35.455078 20.351562 C 38.939248 19.715823 43.721941 19.710966 47.425781 20.341797 L 49.003906 20.611328 L 49.623047 20.201172 C 51.609397 18.886655 54.975221 17.666369 57.056641 17.505859 L 58.332031 17.408203 z "
     id="path4300" /></svg>