<?xml version="1.0" encoding="utf-8"?>
<!-- Generator: Adobe Illustrator 19.0.0, SVG Export Plug-In . SVG Version: 6.00 Build 0)  -->
<svg version="1.1" id="Layer_1" xmlns="http://www.w3.org/2000/svg" xmlns:xlink="http://www.w3.org/1999/xlink" x="0px" y="0px"
	 viewBox="0 0 84 84" style="enable-background:new 0 0 84 84;" xml:space="preserve">
<style type="text/css">
	.st0{fill:#FFFFFF;}
</style>
<path id="XMLID_507_" class="st0" d="M42,0C18.8,0,0,18.8,0,42c0,23.2,18.8,42,42,42c23.2,0,42-18.8,42-42C84,18.8,65.2,0,42,0z
	 M63.4,31c0,0.5,0,0.9,0,1.4C63.4,47,52.3,63.9,32,63.9c-6.2,0-12-1.8-16.9-5c0.9,0.1,1.7,0.2,2.6,0.2c5.2,0,9.9-1.8,13.7-4.7
	c-4.8-0.1-8.9-3.3-10.3-7.7c0.7,0.1,1.4,0.2,2.1,0.2c1,0,2-0.1,2.9-0.4c-5.1-1-8.9-5.5-8.9-10.8c0,0,0-0.1,0-0.1
	c1.5,0.8,3.2,1.3,5,1.4c-3-2-4.9-5.4-4.9-9.2c0-2,0.5-3.9,1.5-5.6c5.4,6.7,13.6,11.1,22.8,11.5c-0.2-0.8-0.3-1.7-0.3-2.5
	c0-6.1,4.9-11,11-11c3.2,0,6.1,1.3,8.1,3.5c2.5-0.5,4.9-1.4,7-2.7c-0.8,2.6-2.6,4.7-4.9,6.1c2.2-0.3,4.4-0.9,6.3-1.7
	C67.4,27.5,65.6,29.5,63.4,31z"/>
</svg>
