<?xml version="1.0" encoding="utf-8"?>
<!-- Generator: Adobe Illustrator 19.0.0, SVG Export Plug-In . SVG Version: 6.00 Build 0)  -->
<svg version="1.1" id="Layer_1" xmlns="http://www.w3.org/2000/svg" xmlns:xlink="http://www.w3.org/1999/xlink" x="0px" y="0px"
	 viewBox="-437 239 84 84" style="enable-background:new -437 239 84 84;" xml:space="preserve">
<style type="text/css">
	.st0{fill:#FFFFFF;}
</style>
<g>
	<path class="st0" d="M-373.6,266.9c-0.6-3.7-3.3-6.5-7-7.2c-1.9-0.4-4-0.6-6.2-0.6c-2.6-0.1-5.3-0.1-8-0.1c-2.2,0-4.3,0-6.5,0
		c-2.2,0-4.9,0.1-7.4,0.5c-4.1,0.7-6.6,3-7.5,7.1c-0.3,1.4-0.5,3-0.5,4.7c-0.1,6.1-0.1,11.1-0.1,15.8c0,2.3,0.2,4.8,0.5,7.3
		c0.4,3.2,1.9,5.5,4.7,7c2,1.1,4.2,1.3,6.1,1.3c2.5,0.1,5,0.1,7.5,0.2c0.9,0,1.9,0,2.8,0l0.4,0c0.6,0,1.3,0,1.9,0c1.4,0,2.8,0,4.2,0
		c0.5,0,1,0,1.5,0c2.3,0,4.6-0.1,6.8-0.6c3.7-0.9,6-3.2,6.9-6.8c0.4-1.6,0.5-3.2,0.6-4.8c0.1-6.5,0.2-11.5,0.1-16.1
		C-373,271.8-373.2,269.3-373.6,266.9z M-384.6,291.2c-2.8,2.8-6.4,4.3-10.3,4.3c0,0-0.1,0-0.1,0c-8.2-0.1-14.5-6.5-14.5-14.6
		c0-8.1,6.4-14.4,14.5-14.4c0,0,0,0,0.1,0c8.1,0,14.5,6.4,14.5,14.5C-380.3,284.8-381.8,288.5-384.6,291.2z M-377.6,269.1
		c-0.7,0.7-1.7,1.1-2.7,1.1c0,0,0,0,0,0c-2.1,0-3.7-1.7-3.7-3.7c0-1,0.4-1.9,1.1-2.7c0.7-0.7,1.7-1.1,2.7-1.1c0,0,0,0,0,0
		c2.1,0,3.7,1.7,3.7,3.7C-376.5,267.4-376.9,268.4-377.6,269.1z"/>
	<path class="st0" d="M-394.9,272.4C-394.9,272.4-394.9,272.4-394.9,272.4c-4.8,0-8.6,3.8-8.6,8.6c0,2.3,0.9,4.5,2.5,6.1
		c1.6,1.6,3.8,2.5,6.1,2.5c0,0,0,0,0,0c2.3,0,4.5-0.9,6.1-2.5c1.6-1.6,2.5-3.8,2.5-6.1C-386.3,276.3-390.2,272.4-394.9,272.4z"/>
	<path class="st0" d="M-395,239c-23.2,0-42,18.8-42,42s18.8,42,42,42s42-18.8,42-42S-371.8,239-395,239z M-367.2,291.5
		c0,3.2-0.6,5.9-1.7,8.4c-1.7,3.7-4.5,6.3-8.4,7.7c-2.1,0.7-4.3,1.1-6.7,1.1l-1.2,0c-5.1,0-10.3,0.1-15.5,0.1c-0.8,0-1.6,0-2.4,0
		c-2.8,0-6.1-0.1-9.2-1.2c-4.4-1.5-7.4-4.5-9-8.9c-0.8-2.2-1.2-4.6-1.2-7.4c0-2.6,0-5.2,0-7.7c0-0.9,0-1.8,0-2.8l-0.2,0l0-0.5
		c0-1.2,0.1-2.3,0.1-3.5c0.1-2.6,0.1-5.3,0.3-8c0.3-4.4,1.6-7.9,4.2-10.6c2.2-2.3,4.9-3.8,8.2-4.3c2.3-0.4,4.6-0.6,6.9-0.6
		c5.7-0.1,11.5-0.1,16.5,0c2.9,0,6.1,0.2,9.1,1.2c4.6,1.5,7.7,4.6,9.3,9.3c0.7,2.1,1.1,4.4,1.1,6.9
		C-367.2,279-367.2,285.4-367.2,291.5z"/>
</g>
</svg>
