<?xml version="1.0" encoding="utf-8"?>
<!-- Generator: Adobe Illustrator 19.0.0, SVG Export Plug-In . SVG Version: 6.00 Build 0)  -->
<svg version="1.1" id="Layer_1" xmlns="http://www.w3.org/2000/svg" xmlns:xlink="http://www.w3.org/1999/xlink" x="0px" y="0px"
	 viewBox="-437 239 84 84" style="enable-background:new -437 239 84 84;" xml:space="preserve">
<style type="text/css">
	.st0{fill:#FFFFFF;}
</style>
<g>
	<path class="st0" d="M-395,239c-23.2,0-42,18.8-42,42s18.8,42,42,42s42-18.8,42-42S-371.8,239-395,239z M-404.8,284.8
		c0,6.2,0,12.4,0,18.6c0,0.3,0,0.6-0.1,0.9c-0.2,1.2-1.1,1.7-2.2,1.3c-0.2-0.1-0.5-0.2-0.7-0.3c-4.8-2.4-9.6-4.8-14.4-7.2
		c-1.5-0.7-2.1-1.8-2.1-3.4c0-12.1,0-24.2,0-36.3c0-0.1,0-0.3,0-0.4c0-1.3,0.9-1.9,2.1-1.4c1.8,0.9,3.6,1.8,5.5,2.7
		c3.8,1.9,7.6,3.8,11.5,5.8c0.4,0.2,0.6,0.5,0.6,0.9C-404.8,272.3-404.8,278.6-404.8,284.8z M-385.8,296.8
		c-5.5-2.7-10.9-5.4-16.4-8.2c-0.3-0.2-0.5-0.3-0.5-0.7c0-6.2,0-12.4,0-18.5c0-0.1,0-0.2,0-0.5c5.8,9.5,11.6,18.7,17.4,28.2
		C-385.6,296.9-385.7,296.9-385.8,296.8z M-389.9,285.4c-2.2-3.5-4.4-7.1-6.6-10.6c-0.2-0.3-0.2-0.6,0-0.9c3.4-5.5,6.8-11,10.2-16.5
		c0.8-1.2,1.7-1.5,3-0.9c5.7,2.8,11.3,5.7,17,8.5c0.2,0.1,0.3,0.2,0.6,0.3c-6.1,9.9-12.2,19.8-18.3,29.7
		C-386,291.8-388,288.6-389.9,285.4z M-368.7,305.3c-4.8-2.4-9.6-4.8-14.4-7.2c-0.1,0-0.1-0.1-0.2-0.1c5.9-9.5,11.7-19,17.5-28.5
		c0,0,0.1,0,0.1,0c0,0.2,0,0.4,0,0.5c0,11.1,0,22.2,0,33.3C-365.7,305.4-367,306.2-368.7,305.3z"/>
</g>
</svg>
