<?xml version="1.0" encoding="UTF-8" standalone="no"?>
<svg
   xmlns:dc="http://purl.org/dc/elements/1.1/"
   xmlns:cc="http://creativecommons.org/ns#"
   xmlns:rdf="http://www.w3.org/1999/02/22-rdf-syntax-ns#"
   xmlns:svg="http://www.w3.org/2000/svg"
   xmlns="http://www.w3.org/2000/svg"
   xml:space="preserve"
   style="enable-background:new 0 0 84 84;"
   viewBox="0 0 84 84"
   y="0px"
   x="0px"
   id="Layer_1"
   version="1.1"><metadata
     id="metadata10"><rdf:RDF><cc:Work
         rdf:about=""><dc:format>image/svg+xml</dc:format><dc:type
           rdf:resource="http://purl.org/dc/dcmitype/StillImage" /><dc:title></dc:title></cc:Work></rdf:RDF></metadata><defs
     id="defs8" /><style
     id="style3"
     type="text/css">
	.st0{fill:#FFFFFF;}
</style><g
     transform="matrix(3.1762837,0,0,3.25,16.58973,16)"
     id="g4194"
     style="clip-rule:evenodd;fill-rule:evenodd;stroke-linejoin:round;stroke-miterlimit:1.41400003;fill:#ffffff"><path
       style="fill:#ffffff"
       d="M 5.667,2.667 7,2.667 7,16 l -1.333,0 0,-13.333 z m 4.666,0 0,13.333 L 9,16 9,2.667 l 1.333,0 z m -8,-2.667 1.334,0 0,10 -1.334,0 0,-10 z m 10,2.667 1.334,0 0,7.333 -1.334,0 0,-7.333 z M 21.223,8 A 13.223,12.923077 0 0 1 8.0000001,20.923077 13.223,12.923077 0 0 1 -5.2230001,8 13.223,12.923077 0 0 1 8.0000001,-4.9230769 13.223,12.923077 0 0 1 21.223,8 Z"
       id="path4186" /></g></svg>