<?xml version="1.0" encoding="utf-8"?>
<!-- Generator: Adobe Illustrator 19.0.0, SVG Export Plug-In . SVG Version: 6.00 Build 0)  -->
<svg version="1.1" id="Layer_1" xmlns="http://www.w3.org/2000/svg" xmlns:xlink="http://www.w3.org/1999/xlink" x="0px" y="0px"
	 viewBox="0 0 84 84" style="enable-background:new 0 0 84 84;" xml:space="preserve">
<style type="text/css">
	.st0{fill:#FFFFFF;}
</style>
<path id="XMLID_512_" class="st0" d="M42,0C18.8,0,0,18.8,0,42c0,23.2,18.8,42,42,42c23.2,0,42-18.8,42-42C84,18.8,65.2,0,42,0z
	 M55,41.7h-8v29.5H34.9V41.8h-6.6V31.7h6.4c0-3,0-5.7,0-8.5c0-8,6.1-10.3,11.7-10.3c3.7,0,9.3,0,9.3,0h0v10c-0.8,0-3.8,0-5.4,0
	c-0.2,0-3.5-0.2-3.5,3c0,1.3,0,5.7,0,5.7h8.9L55,41.7z"/>
</svg>
